<svg xmlns="http://www.w3.org/2000/svg" viewBox="0 0 639.38 639.69"><defs><style>.cls-1{fill:#010101;}.cls-2{fill:#588c36;}.cls-3{fill:#fdfdfd;}.cls-4{fill:#fcfcfc;}.cls-5{fill:#d5b743;}</style></defs><g id="Layer_2" data-name="Layer 2"><g id="Layer_1-2" data-name="Layer 1"><path class="cls-1" d="M319.57,0C497.4,1.34,639.46,142.36,639.38,320.15c-.08,177.61-142,319.48-319.57,319.54C142,639.75-.08,497.64,0,319.85.08,142.24,142,1.46,319.57,0ZM468.88,250.73c-.5-3.41-1-6-1.24-8.64-1.05-9.74-3.68-18.11-13.31-23.49-4.38-2.45-7.82-7.64-10.18-12.34-2.21-4.39-4.22-7.73-9.23-9.32-3.71-1.19-6.93-3.9-10.46-5.74-2.92-1.52-3.48-3.42-2.26-6.49,3.91-9.9,7.5-19.93,11.43-29.82,1.09-2.75,1-4.35-1.71-6.12a145,145,0,0,1-14.09-10.32,32.92,32.92,0,0,0-17.73-7.26,102.9,102.9,0,0,0-14.43-1,125.73,125.73,0,0,1-51.28-8.72,25.17,25.17,0,0,0-11.66-2c-13.15,1.46-26.67,2.17-37.47,11.5a10.07,10.07,0,0,1-2.23,1.1c-9.48,4.64-19.53,6-30,6-17.94-.07-34.87,3-47.11,18.07a46,46,0,0,1-4.41,4.05c-10.43,9.77-23.3,15.36-36.23,20.69-7.31,3-11.84,7.69-14.38,15.28-1.92,5.75-5.28,11.07-8.4,16.34-2.8,4.71-6.2,9.06-9.24,13.63-4.94,7.42-7.1,15.36-4.25,24.16,2.77,8.59,7.72,15.77,14.09,22.08C156.82,286,173.47,294.89,191.21,302c39.13,15.63,80.14,21.51,121.94,22.79a394.45,394.45,0,0,0,86.89-7c30.2-5.82,59.49-14.49,85.69-31.36,11.59-7.46,22-16.26,28.55-28.71,5.71-10.82,6-21.73-.07-33ZM537.38,215c6.74,10.47,8.64,21.62,7.62,33.32-1.35,15.51-9.08,28-19.57,38.89-18.31,19-41.19,30.7-65.52,39.79-33,12.31-67.18,18.78-102.2,21.35-59,4.34-116.76-1-172.57-21.52-24.21-8.89-46.86-20.72-65-39.64-19.38-20.15-28.31-47.69-8.7-74.87,8.2-11.37,14.22-24.32,21.23-36.55l-1.5-1c-18.54,9.86-35.85,21.36-49.83,37.4C70.91,224,65.14,237.54,66,253.58c.3,5.82.1,11.67.49,17.49.56,8.49,1.56,16.9,7,24,.82,1.08.88,2.82,1.06,4.29,1.38,11.23,2.57,22.48,4.14,33.69.31,2.26,1.4,5,3.07,6.39,9.67,8.08,19,16.89,29.6,23.51,50.82,31.61,107,47.44,166,53.78a419.69,419.69,0,0,0,99.73-1.57C426.64,408.71,474,395,518.33,371.78c15.35-8,30.1-17.14,42.37-29.63a14.08,14.08,0,0,0,3.16-5.9c4.57-16.12,5.85-32.88,10.5-49.11,3.27-11.4,2.26-24.07,2.79-36.19.78-17.47-7.16-31-19.75-42.34-4-3.6-7.24-4.26-11.3-.24C543.65,210.8,540.56,212.59,537.38,215ZM100.65,404.69c1.23,2.28,2.15,3.94,3,5.63,23.19,44.51,58.83,74.84,105.41,92.79,28.67,11.06,58.52,16.46,89,18.47,33.9,2.23,67.56.86,100.68-7.61,49-12.53,89.84-37.76,120.58-78.35,6-8,11.25-16.57,16.91-25-1-.52-1.26-.69-1.32-.65-4.3,3.08-8.51,6.27-12.88,9.25C498,435.72,471.33,446.74,443.48,455c-54.31,16.07-109.71,20.76-166,15.23a393.07,393.07,0,0,1-100.84-23.05c-26.43-9.95-51.73-22-72.89-41.27C103.1,405.32,102.05,405.21,100.65,404.69ZM483.82,216.4c17.69-11.34,35.5-22.32,52.79-34.06,6.25-4.23,11.75-9.85,16.73-15.59,6.16-7.09,6.12-10.41-1-16.39-9.14-7.67-18.63-15.24-29-21.09-11.63-6.58-24.32-11.33-36.66-16.6-5-2.12-9.14-.59-11.57,4.45-6.85,14.21-13.79,28.37-20.36,42.71-2.6,5.65-4.29,11.72-6.16,16.92,4,2.66,9.18,4.15,10.55,7.3,3.85,8.85,9.63,15.27,17.42,20.74C479.68,207,481,211.66,483.82,216.4Z"/><path class="cls-2" d="M468.88,250.73l45.33-26c6.07,11.24,5.78,22.15.07,33-6.56,12.45-17,21.25-28.55,28.71C459.53,303.3,430.24,312,400,317.79a394.45,394.45,0,0,1-86.89,7c-41.8-1.28-82.81-7.16-121.94-22.79-17.74-7.1-34.39-16-48.13-29.66-6.37-6.31-11.32-13.49-14.09-22.08-2.85-8.8-.69-16.74,4.25-24.16,3-4.57,6.44-8.92,9.24-13.63,3.12-5.27,6.48-10.59,8.4-16.34,2.54-7.59,7.07-12.27,14.38-15.28,12.93-5.33,25.8-10.92,36.23-20.69a46,46,0,0,0,4.41-4.05C218.14,141,235.07,138,253,138c10.49,0,20.54-1.33,30-6a10.07,10.07,0,0,0,2.23-1.1c10.8-9.33,24.32-10,37.47-11.5a25.17,25.17,0,0,1,11.66,2,125.73,125.73,0,0,0,51.28,8.72,102.9,102.9,0,0,1,14.43,1,32.92,32.92,0,0,1,17.73,7.26,145,145,0,0,0,14.09,10.32c2.75,1.77,2.8,3.37,1.71,6.12-3.93,9.89-7.52,19.92-11.43,29.82-1.22,3.07-.66,5,2.26,6.49,3.53,1.84,6.75,4.55,10.46,5.74,5,1.59,7,4.93,9.23,9.32,2.36,4.7,5.8,9.89,10.18,12.34,9.63,5.38,12.26,13.75,13.31,23.49C467.92,244.71,468.38,247.32,468.88,250.73Z"/><path class="cls-3" d="M537.38,215c3.18-2.36,6.27-4.15,8.72-6.58,4.06-4,7.32-3.36,11.3.24C570,220,577.93,233.48,577.15,251c-.53,12.12.48,24.79-2.79,36.19-4.65,16.23-5.93,33-10.5,49.11a14.08,14.08,0,0,1-3.16,5.9c-12.27,12.49-27,21.58-42.37,29.63C474,395,426.64,408.71,377.08,415.2a419.69,419.69,0,0,1-99.73,1.57c-59-6.34-115.19-22.17-166-53.78-10.63-6.62-19.93-15.43-29.6-23.51-1.67-1.39-2.76-4.13-3.07-6.39-1.57-11.21-2.76-22.46-4.14-33.69-.18-1.47-.24-3.21-1.06-4.29-5.47-7.14-6.47-15.55-7-24-.39-5.82-.19-11.67-.49-17.49-.81-16,5-29.55,15.34-41.47,14-16,31.29-27.54,49.83-37.4l1.5,1c-7,12.23-13,25.18-21.23,36.55-19.61,27.18-10.68,54.72,8.7,74.87,18.19,18.92,40.84,30.75,65,39.64,55.81,20.48,113.6,25.86,172.57,21.52,35-2.57,69.24-9,102.2-21.35,24.33-9.09,47.21-20.76,65.52-39.79,10.49-10.92,18.22-23.38,19.57-38.89C546,236.57,544.12,225.42,537.38,215Z"/><path class="cls-4" d="M100.65,404.69c1.4.52,2.45.63,3.07,1.19,21.16,19.3,46.46,31.32,72.89,41.27A393.07,393.07,0,0,0,277.45,470.2c56.32,5.53,111.72.84,166-15.23,27.85-8.23,54.5-19.25,78.63-35.73,4.37-3,8.58-6.17,12.88-9.25.06,0,.27.13,1.32.65-5.66,8.41-10.87,17-16.91,25-30.74,40.59-71.54,65.82-120.58,78.35-33.12,8.47-66.78,9.84-100.68,7.61-30.53-2-60.38-7.41-89-18.47-46.58-17.95-82.22-48.28-105.41-92.79C102.8,408.63,101.88,407,100.65,404.69Z"/><path class="cls-5" d="M483.82,216.4c-2.83-4.74-4.14-9.44-7.23-11.61-7.79-5.47-13.57-11.89-17.42-20.74-1.37-3.15-6.51-4.64-10.55-7.3,1.87-5.2,3.56-11.27,6.16-16.92,6.57-14.34,13.51-28.5,20.36-42.71,2.43-5,6.61-6.57,11.57-4.45,12.34,5.27,25,10,36.66,16.6,10.34,5.85,19.83,13.42,29,21.09,7.12,6,7.16,9.3,1,16.39-5,5.74-10.48,11.36-16.73,15.59C519.32,194.08,501.51,205.06,483.82,216.4Z"/></g></g></svg>