<svg xmlns="http://www.w3.org/2000/svg" viewBox="0 0 770.83 271.73"><defs><style>.cls-1{fill:#fefefe;}.cls-2{fill:#f1f1f2;}.cls-3{fill:#844fb9;}.cls-4{fill:#454647;}.cls-5{fill:#8550ba;}.cls-6{fill:#d6d6d6;}.cls-7{fill:#353637;}.cls-8{fill:#101010;}.cls-9{fill:#050505;}.cls-10{fill:#191919;}.cls-11{fill:#cececf;}.cls-12{fill:#f6f3fa;}.cls-13{fill:#fdfdfd;}.cls-14{fill:#f6f6f6;}.cls-15{fill:#020202;}.cls-16{fill:#366fe5;}.cls-17{fill:#f35d32;}.cls-18{fill:#88bf15;}.cls-19{fill:#14abf0;}.cls-20{fill:#febd17;}.cls-21{fill:#6c6869;}.cls-22{fill:#440298;}.cls-23{fill:#303a48;}.cls-24{fill:#fe9e0e;}.cls-25{fill:#4586f3;}.cls-26{fill:#36a756;}.cls-27{fill:#333cef;}</style></defs><g id="Layer_2" data-name="Layer 2"><g id="Layer_1-2" data-name="Layer 1"><path class="cls-1" d="M764.12,53.7a26.76,26.76,0,0,0,1.12-9.6A24.48,24.48,0,0,0,739,21.61a24.16,24.16,0,0,0-16.3,7.85,2.13,2.13,0,0,1-1.46.46c-2.13,0-4.27-.39-6.38-.24a19.08,19.08,0,0,0-14.73,8.44,20.55,20.55,0,0,0,2.46,26.62c4.49,4.35,10.09,5.94,16.25,5.86,4.55-.06,9.11,0,13.66,0,5.86,0,11.75.28,17.41-1.72l.62,1a11,11,0,0,0,20.26-6.41C770.6,58.85,768.05,55.78,764.12,53.7Zm-23.53,99.44c.34.56.67,1.13,1,1.69a11,11,0,0,0,18.89-11.22,13.06,13.06,0,0,0-5.36-5q0-15.41,0-30.79a3,3,0,0,0-3.23-3.23q-21.15,0-42.3,0a3,3,0,0,0-3.14,3.15q0,21.14,0,42.27a3,3,0,0,0,3.09,3.2Q725.11,153.2,740.59,153.14Zm9.35,81.53c.21.33.41.66.62,1a11,11,0,0,0,20.26-6.41c-.22-4.58-2.76-7.66-6.7-9.73a26.76,26.76,0,0,0,1.12-9.6A24.48,24.48,0,0,0,739,187.42a24.16,24.16,0,0,0-16.3,7.85,2.13,2.13,0,0,1-1.46.46c-2.13,0-4.28-.4-6.38-.24a19.08,19.08,0,0,0-14.73,8.44,20.55,20.55,0,0,0,2.46,26.62c4.49,4.35,10.09,5.94,16.25,5.86,4.61-.06,9.22,0,13.83,0C738.5,236.41,744.33,236.66,749.94,234.67ZM195,109.91c.17-3.69-.14-4-3.81-4H126.63c-.5,0-1,0-1.5,0a2,2,0,0,0-2,2c0,.66,0,1.32,0,2q0,24.79,0,49.58c0,1.68.72,2.34,2.5,2.34h66.94c1.89,0,2.51-.68,2.52-2.67V133Q195.07,121.48,195,109.91Zm158,27L353,155c0,2.26.58,2.84,2.86,2.84h74.25c2.27,0,2.85-.58,2.86-2.84l0-18.13h23.06v4l8.58-5.06-8.71-5.09v4.1H433l0-22c0-2.49-.52-3-3-3H356c-2.5,0-3,.52-3,3l0,22H337.05l0-22.13c0-2.26-.58-2.83-2.86-2.83H259.91c-2.27,0-2.86.58-2.86,2.85V155c0,2.27.58,2.85,2.85,2.85h74.26c2.27,0,2.85-.58,2.86-2.84l0-18.13ZM473,136V268.2c0,.44,0,.89,0,1.33-.11,1.34.73,1.89,1.85,2.14a7.49,7.49,0,0,0,1.5,0H613.9c.27,0,.55,0,.83,0,1.35.11,1.89-.74,2.13-1.86a8.34,8.34,0,0,0,0-1.66V3.2c0-.33,0-.67,0-1,.1-1.35-.74-1.89-1.86-2.14a6.71,6.71,0,0,0-1.49,0H476c-.28,0-.56,0-.83,0-1.35-.11-1.9.74-2.14,1.86a8.32,8.32,0,0,0,0,1.66Zm206-83v4.05L687.6,52l-8.74-5.11V51H665.42c-6.48,0-10.07,3.6-10.07,10.09v73.71c-.38.05-.59.09-.8.1-6.55,0-13.1,0-19.65,0a2.34,2.34,0,0,1-1.54-1,4.23,4.23,0,0,0-4.49-1.79,4,4,0,0,0,.08,7.81,3.84,3.84,0,0,0,4.37-1.92,1.7,1.7,0,0,1,1.82-1c4.94,0,9.88,0,14.82,0h5.39V208.1c0,1.16,0,2.33,0,3.49a9,9,0,0,0,9.32,9.19h12.65c.48,0,1,.05,1.59.08v4l8.69-5.12-8.81-5.13v4.13H665.68c-5.67,0-8.26-2.56-8.26-8.2q0-74.64,0-149.28c0-.67,0-1.34.06-2a6.64,6.64,0,0,1,6.11-6.21C668.63,52.87,673.67,53,678.91,53ZM36.23,108.54H15.91c-3.11,0-4.11,1-4.11,4v40.6c0,3,1,4,3.95,4H56.54c2.89,0,4-1,4-3.86V112.4c0-2.83-1.06-3.86-4-3.86Zm78.58,27.32-8.8-5.13v4.13c-9.74,0-19.34,0-28.94,0a2.47,2.47,0,0,1-1.52-1.07A4.16,4.16,0,0,0,71.06,132a4,4,0,0,0,.06,7.72,3.72,3.72,0,0,0,4.38-1.85c.48-1,1.08-1,2-1,9.1,0,18.2,0,27.3,0,.42,0,.85,0,1.41.08v4Zm88.3,1h37v4l8.66-5.09L240,130.74v4.18H203.11Zm454.82,0h32v4l8.64-5.07-8.78-5.13v4.2H657.93ZM161.61,198.33l.36-.49c-.24-2.64-3-3.94-5.08-3.65a5.21,5.21,0,0,0-4.45,5.53,5.11,5.11,0,0,0,4.33,5.11,4.49,4.49,0,0,0,5.19-4.21,9.4,9.4,0,0,0-2.18,1.34,3,3,0,0,1-4.12.68,4.4,4.4,0,0,1-.58-5.59,2.85,2.85,0,0,1,4.11-.6c.22.17.36.43.58.59C160.37,197.49,161,197.9,161.61,198.33Zm15.81-.22-.94-.5a3,3,0,0,0-3.8.56,4.06,4.06,0,0,0-.88,4.46,3.08,3.08,0,0,0,3,2.27,35.8,35.8,0,0,0,4.1-.44c0-2.91,0-6,0-9.09,0-1.21-.54-1.21-1.45-.94ZM0,170.31v10.53l1.61-.1v-4.1a31.23,31.23,0,0,0,3.22,0,3.18,3.18,0,0,0-.08-6.29C3.21,170.23,1.67,170.31,0,170.31ZM145,185.6c0-1.41,0-2.79,0-4.17,0-2.11-.77-3.09-2.48-3.28a3.08,3.08,0,0,0-3.64,2.52c.1.05.21.15.28.13.57-.2,1.11-.47,1.69-.63a9.83,9.83,0,0,1,1.95-.34c.12,0,.28.5.42.77a13.33,13.33,0,0,1-1.51.76,7.09,7.09,0,0,1-1.15.14c-1.29.26-2.15,1-2,2.38a2.14,2.14,0,0,0,2.38,2C142.19,185.89,143.48,185.72,145,185.6Zm60.69-2.49a12.05,12.05,0,0,1-1.86.92,4.34,4.34,0,0,1-2.15.32c-.49-.12-.81-.9-1.48-1.74h5.47c.3-2.39-.69-4-2.59-4.37A3.5,3.5,0,0,0,199,181c-.53,2.17.41,4.21,2.21,4.76S205.39,185.59,205.65,183.11Zm-191.72-7.5.27.46a12.07,12.07,0,0,1,1.76-1,5.15,5.15,0,0,1,1.83-.27c.17,0,.34.46.51.72a9.53,9.53,0,0,1-1.47.8,14.3,14.3,0,0,1-1.46.23,2,2,0,0,0-1.76,2.26,2.08,2.08,0,0,0,2.18,2.06c1.39,0,2.79-.18,4.28-.29v-4c0-2.19-.65-3.17-2.26-3.47C16,172.83,14.66,173.63,13.93,175.61Zm56.81,2c.09-2.72-1-4.2-3-4.41a3.53,3.53,0,0,0-3.85,3.11,3.73,3.73,0,0,0,2.6,4.54c2,.48,3.45-.32,4.27-2.68a16.6,16.6,0,0,1-2,.86,4.42,4.42,0,0,1-2.15.29c-.49-.13-.81-.9-1.47-1.71Zm116.58,24c.2-2.58-.86-4.13-2.87-4.4a3.56,3.56,0,0,0-3.94,3.2,3.68,3.68,0,0,0,2.7,4.47c2,.44,3.48-.4,4.06-2.69a10,10,0,0,0-1.81.84c-1.44,1.09-2.82.57-3.24-1.42Zm3.4-23.17a28.08,28.08,0,0,1-.36,4.67c-.14.59-1.22.95-1.87,1.41-.38-.58-1-1.13-1.1-1.75a39.32,39.32,0,0,1,0-4.36h-1.7c0,1.85-.08,3.61,0,5.35a2.38,2.38,0,0,0,2.61,2.26,30.94,30.94,0,0,0,4-.4c0-2-.05-4,0-6C192.34,178.39,191.91,178.05,190.72,178.41Zm-20.2,7.15v-7.21H168.9c0,1.5.09,2.93,0,4.35-.09,1.1-.7,1.92-2,1.79s-1.22-1.1-1.23-2c0-1.36,0-2.72,0-4.2l-1.75.09c0,1.76-.1,3.42,0,5.06a2.57,2.57,0,0,0,2.72,2.58C167.94,186,169.21,185.72,170.52,185.56Zm-48.55.19c0-1.5-.08-2.88,0-4.25.08-1.08.67-2,1.88-1.91s1.32,1.11,1.32,2.09v4.07H127c0-1.7.09-3.36,0-5a2.54,2.54,0,0,0-2.66-2.61c-1.27,0-2.53.26-3.89.41v7.19Zm-64.78-5a24.35,24.35,0,0,1,.28-4.5c.16-.67,1.22-1.12,1.87-1.67.4.63,1.06,1.23,1.15,1.91a37,37,0,0,1,0,4.36l1.72-.11c0-1.83.06-3.54,0-5.24a2.21,2.21,0,0,0-2-2.26,29.92,29.92,0,0,0-4.54.27v7.24ZM134.34,200a11,11,0,0,1,1.73-1,5.11,5.11,0,0,1,1.83-.26c.18,0,.35.46.53.71a10.09,10.09,0,0,1-1.45.84,10.88,10.88,0,0,1-1.31.18c-1.28.29-2.1,1-1.91,2.44a2.19,2.19,0,0,0,2.45,2,38.46,38.46,0,0,0,3.92-.41c0-1.31,0-2.79,0-4.28,0-1.86-.76-2.83-2.32-3.07C136,196.86,134.68,197.67,134.34,200Zm7.42,2.2c.52,2.44,2.63,3.42,4.42,2.37a3,3,0,0,0,1.4-2.16c0-.68-1-1.4-1.68-1.93-.39-.3-1.09-.18-1.59-.39-.34-.14-.59-.53-.88-.81.37-.25.74-.71,1.12-.71s.83.41,1.26.62.95.44,1.61.75c-.37-2.5-2.64-3.6-4.49-2.39a2.56,2.56,0,0,0-1.09,1.83,2.66,2.66,0,0,0,1.25,1.7,12.52,12.52,0,0,0,2.2.67,1.15,1.15,0,0,1,.66.8c0,.3-.44.83-.66.82a8.05,8.05,0,0,1-2-.46C142.79,202.75,142.28,202.47,141.76,202.23Zm4.84-19a3.08,3.08,0,0,0,5.08,2,2,2,0,0,0-.51-3.5c-.65-.28-1.4-.32-2.06-.58-.35-.14-.61-.53-.91-.8.38-.25.75-.69,1.13-.7s.85.39,1.28.59,1,.42,1.71.73c-.67-2.48-2.45-3.42-4.28-2.48a2.91,2.91,0,0,0-1.44,1.94c0,.56.79,1.33,1.4,1.77s1.29.28,1.88.56c.36.18.58.66.86,1-.37.27-.73.75-1.11.76a3.59,3.59,0,0,1-1.48-.51C147.62,183.77,147.11,183.5,146.6,183.25Zm23.85,17.82a3.65,3.65,0,0,0-3.61-3.91,3.74,3.74,0,0,0-3.66,3.9,3.66,3.66,0,0,0,3.57,3.79A3.58,3.58,0,0,0,170.45,201.07Zm-120-20.2a3.69,3.69,0,0,0,3.63-3.9,3.78,3.78,0,0,0-3.63-3.78,3.66,3.66,0,0,0-3.66,3.87A3.57,3.57,0,0,0,50.46,180.87Zm128.36.22.26-.48a3.31,3.31,0,0,0-3.92-2.41,3.83,3.83,0,0,0-3,4.18,3.55,3.55,0,0,0,3.33,3.5c2,.1,3.17-.77,3.59-3.14a11.17,11.17,0,0,1-2,1.15,3.41,3.41,0,0,1-2.21.21c-1.24-.64-1.28-3.19-.19-4.1a1.65,1.65,0,0,1,2.38.09A10.42,10.42,0,0,0,178.82,181.09Zm-150.65-5c-.51-2.4-2.1-3.3-3.91-2.84a3.88,3.88,0,0,0-2.76,4.35A3.47,3.47,0,0,0,25,180.88c1.88,0,3-.86,3.35-3.14a21.06,21.06,0,0,0-2,1.23c-1,.77-2,.81-2.54-.22a4.54,4.54,0,0,1-.31-2.95c.36-1.43,1.75-1.62,2.89-.7A10.53,10.53,0,0,0,28.17,176.08Zm104.5-1.25a16.08,16.08,0,0,0-3.16,1.53c-.63.51,0,2-1.39,2.19.06.36.09,1,.18,1,1.32.11.83,1.1.86,1.76.06,1.33,0,2.66,0,4a1.7,1.7,0,0,0,.2.51l1.49-.14v-5.93l1.72-.17c.71-2-1.2-.95-1.71-1.56-.43-1.65,1-1.06,1.77-1.4Zm-93.9.19a25.79,25.79,0,0,0,.06,3.93,2.73,2.73,0,0,0,1.24,1.72,5.42,5.42,0,0,0,2.1.16v-1.27c-2-.35-2.36-1.49-1.59-4.79.71-.21,2.15.3,1.47-1.42l-1.64-.16-.15-2.34L38.9,171c-.14.85,0,2-.38,2.14C36.11,174.09,37.89,174.46,38.77,175Zm115.42.89c-.39,1,.49,2.32-1.14,2.5a6.18,6.18,0,0,0,.21,1.24c.2.5.69.94.76,1.44.12,1-.11,2,.09,3a2.64,2.64,0,0,0,1.21,1.58,5.93,5.93,0,0,0,2.18.19l-.07-1.35c-2-.24-2.32-1.3-1.59-4.71.69-.26,2.19.33,1.49-1.44l-1.63-.16-.15-2.27ZM30.13,175v2.8c0,2.73.67,3.31,3.42,2.9v-1.1c-2-.34-2.34-1.42-1.59-4.78l1.52-.22c.57-1.91-1.2-.91-1.69-1.51l-.14-2.21-1.4.11c-.12.86,0,2-.35,2.17C27.94,174,29,174.44,30.13,175Zm152.27,1c-1.13-.25-1.71-.13-1.66,1,0,.42-.54.83-.69,1.3a5,5,0,0,0-.06,1.35c1.16,0,.75.86.78,1.43a24,24,0,0,0,.17,3.3c.32,1.47,1.6,1.56,2.79,1.38.32,0,.55-.69.93-1.21-2.45-.32-2.72-1.08-2.07-4.79,1.8-.17,1.8-.17,1.51-1.44l-1.7-.12Zm-66.17-.6v10.47l1.65-.09V175.36Zm78.2,3.08v7.28h1.32c.85-2.14-1.38-5.41,2.68-6.07l-.12-1.21ZM10.35,180.75c.87-2.13-1.44-5.42,2.7-6.07l-.14-1.42L9,173.5v7.25Zm127.53-1-.13-1.42-3.83.2v7.24h1.33C136.2,183.69,133.81,180.46,137.88,179.71Zm22.28,6.06c1-2.14-1.4-5.39,2.68-6.07l-.11-1.4-3.84.21v7.26ZM72.52,173.46v7.37l1.32-.1c.91-2.15-1.45-5.47,2.67-6.07l-.14-1.38ZM35,173.38v7.38h1.58v-7.38Zm10.17,7.37V173.4H43.56v7.35Zm-10.33-10.4.11,1.9,1.66-.08v-1.82Zm10.33,1.78V170.4H43.58v1.73Z"/><path class="cls-2" d="M473,136V3.54a8.32,8.32,0,0,1,0-1.66c.24-1.12.79-2,2.14-1.86.27,0,.55,0,.83,0H613.56a6.71,6.71,0,0,1,1.49,0c1.12.25,2,.79,1.86,2.14,0,.33,0,.67,0,1v265a8.34,8.34,0,0,1,0,1.66c-.24,1.12-.78,2-2.13,1.86-.28,0-.56,0-.83,0H476.31a7.49,7.49,0,0,1-1.5,0c-1.12-.25-2-.8-1.85-2.14,0-.44,0-.89,0-1.33Zm64.63-95.89v-20c0-3.34-1.45-4.82-4.74-4.82H493c-3.21,0-4.73,1.5-4.74,4.65V60c0,3.09,1.52,4.64,4.57,4.65H533c3.05,0,4.56-1.55,4.57-4.65Zm14.69,127.52q0,10,0,20c0,3.34,1.45,4.82,4.73,4.82h39.81c3.29,0,4.74-1.48,4.74-4.81V148c0-3.34-1.45-4.82-4.73-4.82H557c-3.28,0-4.73,1.48-4.73,4.82Q552.27,157.83,552.28,167.66ZM601.56,104q0-10.16,0-20.3c0-2.84-1.61-4.43-4.45-4.43q-20.16,0-40.32,0c-2.94,0-4.51,1.58-4.51,4.53q0,20.06,0,40.12,0,4.59,4.62,4.59h40c3.19,0,4.68-1.5,4.68-4.7Q601.58,113.92,601.56,104ZM513,207.13H492.8c-2.86,0-4.49,1.58-4.49,4.39q0,20.22,0,40.45c0,2.82,1.61,4.4,4.47,4.4h40.31c2.94,0,4.49-1.58,4.5-4.55V211.71c0-3.06-1.55-4.58-4.64-4.58Zm39.32,24.64q0,9.81,0,19.64c0,3.57,1.38,5,4.91,5h39.48c3.45,0,4.89-1.42,4.89-4.83V211.93c0-3.32-1.46-4.8-4.75-4.8H557c-3.2,0-4.72,1.5-4.72,4.66Q552.27,221.78,552.28,231.77Zm-14.69-63.9q0-10.06,0-20.14c0-2.95-1.58-4.52-4.53-4.52H492.92c-3.08,0-4.61,1.54-4.62,4.61v39.95c0,3.19,1.5,4.69,4.7,4.69h39.81c3.32,0,4.78-1.46,4.78-4.77ZM576.75,64.6h19.83c3.57,0,5-1.39,5-4.9V20.25c0-3.45-1.42-4.9-4.82-4.9H557.1c-3.34,0-4.82,1.45-4.82,4.73q0,19.89,0,39.79c0,3.28,1.48,4.73,4.82,4.73ZM513.11,79.27h-20c-3.34,0-4.82,1.45-4.82,4.73v39.78c0,3.21,1.5,4.73,4.66,4.73h40c3.16,0,4.66-1.52,4.66-4.73V84c0-3.28-1.48-4.73-4.82-4.73Z"/><path class="cls-3" d="M337.05,136.87,337,155c0,2.26-.59,2.84-2.86,2.84H259.9c-2.27,0-2.85-.58-2.85-2.85V112.74c0-2.27.59-2.84,2.86-2.85h74.25c2.28,0,2.85.57,2.86,2.83l0,22.13Zm-52-1.13c1.14,0,2.12.07,3.09,0a3.21,3.21,0,0,0,1.56-5.79c-2-1.14-4.17-.62-6.26-.43v10.26h1.61Zm10.81-.55,2.14-.92a4.25,4.25,0,0,1,1.33-.5c.34,0,.69.39,1,.61-.26.29-.47.74-.8.85-.62.21-1.31.19-2,.34a2.09,2.09,0,0,0-1.9,2.16,2,2,0,0,0,2,2.2,40,40,0,0,0,4.37-.24,4.3,4.3,0,0,0,.09-.57c0-1.22,0-2.44,0-3.66,0-2-.75-3-2.38-3.24C298,131.93,296.77,132.72,295.9,135.19Zm8.2-2.56c0,2,0,4,0,6.06,0,1.31.62,1.28,1.56,1.05.08-1.51.09-2.94.26-4.36a1.68,1.68,0,0,1,1.89-1.68c1.2.1,1.27,1,1.27,2,0,1.36,0,2.73,0,4.11h1.77c0-1.74.1-3.39,0-5a2.57,2.57,0,0,0-2.73-2.55C306.83,132.25,305.59,132.46,304.1,132.63Zm-10,7.22V129.29l-1.57.16v10.33Z"/><path class="cls-3" d="M353,134.86l0-22c0-2.49.53-3,3-3H430c2.5,0,3,.52,3,3l0,22v2L433,155c0,2.26-.59,2.84-2.86,2.84H355.87c-2.28,0-2.85-.58-2.86-2.84l0-18.13Zm30.19,4.78c-1.24-3.24-2.44-6.44-3.72-9.61a1.53,1.53,0,0,0-1.13-.67,1.23,1.23,0,0,0-1,.58c-1.29,3.22-2.52,6.47-3.79,9.76,1.3.37,2.12.18,2.36-1.13.28-1.49,1.44-1.25,2.47-1.25s2.16-.25,2.46,1.26C381.06,139.69,381.72,140.19,383.17,139.64Zm1.62-7v10.32c2.75-.34.73-2.59,1.74-3.57a6.35,6.35,0,0,0,1.09.43,3.28,3.28,0,0,0,3.69-1.24,4.22,4.22,0,0,0,.22-4.56,3.15,3.15,0,0,0-3.29-1.78C387.18,132.32,386.14,132.46,384.79,132.61Zm10.43,6.63a11.27,11.27,0,0,0,1.29.55,3.41,3.41,0,0,0,4.39-2.7c.53-2.27-.81-4.67-2.88-4.83a29,29,0,0,0-4.32.32v10.15h1.52Zm10.55,3.19.63.74c.86-.46,2.16-.7,2.5-1.4,1.45-3,2.62-6.12,3.89-9.2-3.28.08-2.16,3.23-3.64,4.4-1.38-1.29-.57-4.34-3.82-4.8,1,2.36,1.82,4.33,2.6,6.33.57,1.46.14,2.26-1.22,2.87C406.32,141.54,406.08,142.07,405.77,142.43Zm-3.11-2.67,1.54.07V129.34l-1.54.11Z"/><path d="M195,109.91q0,11.57.05,23.13v26.12c0,2-.63,2.67-2.52,2.67H125.62c-1.78,0-2.5-.66-2.5-2.34q0-24.78,0-49.58Zm-45.91,31c5.43,0,10.86,0,16.3,0,.54,0,1.08-.46,1.62-.7-.56-.3-1.11-.85-1.66-.85q-16.31-.08-32.6,0c-.54,0-1.09.48-1.63.73.56.29,1.11.82,1.67.83C138.25,140.89,143.68,140.86,149.12,140.86Zm-4.36-8.61c-4,0-8,0-12,0-.55,0-1.09.47-1.64.72.55.29,1.1.83,1.66.83q11.79.09,23.6,0a4.53,4.53,0,0,0,1.63-.7c-.55-.3-1.09-.84-1.65-.85C152.51,132.21,148.63,132.25,144.76,132.25Zm17.77-5.37c3.33,0,6.65,0,10,0,.52,0,1-.51,1.55-.79-.54-.26-1.06-.75-1.6-.76q-9.88-.08-19.77,0c-.52,0-1,.53-1.54.81.53.26,1.06.73,1.59.75C156,126.92,159.27,126.88,162.53,126.88Zm8.85,7c2.72,0,5.43,0,8.14,0,.51,0,1-.52,1.52-.8-.48-.26-1-.74-1.44-.75q-8-.08-15.95,0c-.5,0-1,.54-1.51.83a4.79,4.79,0,0,0,1.61.72C166.29,133.92,168.84,133.87,171.38,133.87Zm-31.29,12.36c-2.49,0-5,0-7.47,0-.49,0-1,.46-1.47.71.5.29,1,.83,1.49.84q7.47.09,14.94,0c.49,0,1-.45,1.46-.69-.49-.3-1-.84-1.48-.86C145.08,146.19,142.58,146.23,140.09,146.23Zm-5-23.41c-1.27,1.23-2.33,2.2-3.29,3.26-.26.28-.22.85-.31,1.28.43,0,1,.08,1.27-.15a43,43,0,0,0,3.62-3.65,1.56,1.56,0,0,0-.1-1.49,36.26,36.26,0,0,0-3.39-3.4c-.31-.27-.93-.19-1.4-.27.13.47.12,1.07.42,1.39C132.9,120.8,134,121.7,135.14,122.82Zm8.46,4.06h0a26,26,0,0,0,2.65,0c.29,0,.55-.41.83-.62-.28-.28-.54-.79-.83-.81-1.76-.07-3.54-.07-5.3,0-.29,0-.55.52-.83.8.33.22.65.59,1,.63A20.47,20.47,0,0,0,143.6,126.88Z"/><path class="cls-4" d="M678.91,53c-5.24,0-10.28-.14-15.31.05a6.64,6.64,0,0,0-6.11,6.21c-.06.66-.06,1.33-.06,2q0,74.64,0,149.28c0,5.64,2.59,8.2,8.26,8.2h13.11v-4.13l8.81,5.13-8.69,5.12v-4c-.62,0-1.11-.08-1.59-.08H664.67a9,9,0,0,1-9.32-9.19c0-1.16,0-2.33,0-3.49V136.88H650c-4.94,0-9.88,0-14.82,0a1.7,1.7,0,0,0-1.82,1,3.84,3.84,0,0,1-4.37,1.92,4,4,0,0,1-.08-7.81,4.23,4.23,0,0,1,4.49,1.79,2.34,2.34,0,0,0,1.54,1c6.55.07,13.1,0,19.65,0,.21,0,.42,0,.8-.1V61c0-6.49,3.59-10.09,10.07-10.09h13.44V46.84L687.6,52l-8.69,5.11Zm-47,82.84a1.94,1.94,0,0,0-2.1-1.95,2,2,0,0,0,.11,3.92C631.18,137.84,631.76,137,631.9,135.85Z"/><path class="cls-5" d="M764.12,219.51c3.94,2.07,6.48,5.15,6.7,9.73a11,11,0,0,1-20.26,6.41c-.21-.32-.41-.65-.62-1s-.39-.85-.59-1.27-.15-.87-.23-1.31a10.87,10.87,0,0,1,9-13.15,23.58,23.58,0,0,1,4.74.12Zm-6.46,13a16.74,16.74,0,0,0-1.9-2.18c-.35-.29-1-.2-1.55-.28,0,.57-.09,1.29.2,1.69a31,31,0,0,0,2.18,2.27c.87.95,1.61.92,2.48,0,1.7-1.89,3.47-3.71,5.19-5.58.54-.58,1.47-1.2.48-2s-1.48.17-2,.74C761.12,228.76,759.56,230.46,757.66,232.5Z"/><path class="cls-5" d="M755.15,138.58a13.06,13.06,0,0,1,5.36,5,11,11,0,0,1-18.89,11.22c-.36-.56-.69-1.13-1-1.69-.15-.44-.29-.87-.43-1.31-.76-3.83-.19-7.34,2.53-10.31,3-3.32,6.84-4.2,11.15-3.35Zm-6.58,13.12a11.3,11.3,0,0,0-1.64-2.11c-.43-.34-1.18-.28-1.79-.4a5.13,5.13,0,0,0,.46,1.82,24.41,24.41,0,0,0,2.06,2.14c.83.9,1.55.85,2.36-.05,1.74-1.92,3.54-3.79,5.31-5.69.51-.55,1.36-1.19.44-1.88-.34-.25-1.45.09-1.87.5C752.21,147.68,750.64,149.47,748.57,151.7Z"/><path class="cls-5" d="M764.12,53.7c3.93,2.08,6.48,5.15,6.7,9.73a11,11,0,0,1-20.26,6.41l-.62-1c-.2-.43-.39-.86-.59-1.28s-.15-.87-.23-1.31a10.87,10.87,0,0,1,9-13.15,23.58,23.58,0,0,1,4.74.12Zm-6.38,12.9a18.08,18.08,0,0,0-2-2.11c-.38-.27-1-.17-1.56-.24,0,.53-.14,1.22.13,1.57a33.36,33.36,0,0,0,2.41,2.5c.8.83,1.48.75,2.24-.07,1.75-1.92,3.58-3.76,5.29-5.72.4-.47.77-1.56.53-1.87-.78-1-1.43-.08-2,.51C761.18,62.89,759.58,64.63,757.74,66.6Z"/><path class="cls-3" d="M195,109.91H123.16c0-.67-.08-1.33,0-2a2,2,0,0,1,2-2c.5,0,1,0,1.5,0h64.59C194.89,105.9,195.2,106.22,195,109.91Z"/><path class="cls-6" d="M764.12,53.7l-1.3-.45a25.88,25.88,0,0,0,.9-10.34,22.71,22.71,0,0,0-7.89-14.39,22.48,22.48,0,0,0-18.4-5.3,22.2,22.2,0,0,0-13.73,7.45,2.64,2.64,0,0,1-2.78.79,22,22,0,0,0-6.6-.36A18.93,18.93,0,0,0,698.25,54c1.6,8.08,8.53,14.83,17,14.83,11.37,0,22.84,1.53,34.12-1.19.2.42.39.85.59,1.28-5.66,2-11.55,1.73-17.41,1.72-4.55,0-9.11,0-13.66,0-6.16.08-11.76-1.51-16.25-5.86a20.55,20.55,0,0,1-2.46-26.62,19.08,19.08,0,0,1,14.73-8.44c2.11-.15,4.25.2,6.38.24a2.13,2.13,0,0,0,1.46-.46A24.16,24.16,0,0,1,739,21.61,24.48,24.48,0,0,1,765.24,44.1,26.76,26.76,0,0,1,764.12,53.7Z"/><path class="cls-6" d="M764.12,219.51l-1.3-.45a25.88,25.88,0,0,0,.9-10.34,22.71,22.71,0,0,0-7.89-14.39,23,23,0,0,0-32.13,2.14,2.61,2.61,0,0,1-2.78.79,22.27,22.27,0,0,0-6.6-.35,18.92,18.92,0,0,0-16.07,22.85c1.6,8.08,8.53,14.83,17,14.83,11.37,0,22.84,1.53,34.12-1.19.2.42.39.85.59,1.27-5.61,2-11.44,1.74-17.24,1.73-4.61,0-9.22-.05-13.83,0-6.16.08-11.76-1.51-16.25-5.86a20.55,20.55,0,0,1-2.46-26.62,19.08,19.08,0,0,1,14.73-8.44c2.1-.16,4.25.2,6.38.24a2.13,2.13,0,0,0,1.46-.46,24.16,24.16,0,0,1,16.3-7.85,24.48,24.48,0,0,1,26.21,22.49A26.76,26.76,0,0,1,764.12,219.51Z"/><path class="cls-6" d="M36.23,108.54H56.54c2.89,0,4,1,4,3.86v40.93c0,2.83-1.06,3.86-4,3.86H15.75c-2.94,0-3.95-1-3.95-4v-40.6c0-3,1-4,4.11-4ZM13.15,132.88q0,10.23,0,20.46c0,1.89.6,2.5,2.47,2.5h41c2,0,2.54-.59,2.54-2.6q0-20.38,0-40.76c0-2-.58-2.58-2.56-2.58q-20.4,0-40.79,0c-2.08,0-2.62.55-2.62,2.68Q13.15,122.73,13.15,132.88Z"/><path class="cls-6" d="M755.15,138.58l-1.31-.41q0-14.89,0-29.79c0-1.87-.61-2.48-2.5-2.48q-20.49,0-41,0c-1.88,0-2.49.61-2.49,2.49q0,20.48,0,41c0,1.89.6,2.5,2.47,2.5q14.91,0,29.82,0c.14.44.28.87.43,1.31q-15.5,0-31,0a3,3,0,0,1-3.09-3.2q0-21.14,0-42.27a3,3,0,0,1,3.14-3.15q21.15,0,42.3,0a3,3,0,0,1,3.23,3.23Q755.19,123.18,755.15,138.58Z"/><path class="cls-7" d="M114.81,135.86l-8.64,5.07v-4c-.56,0-1-.08-1.41-.08-9.1,0-18.2,0-27.3,0-.88,0-1.48.07-2,1a3.72,3.72,0,0,1-4.38,1.85,4,4,0,0,1-.06-7.72,4.16,4.16,0,0,1,4.49,1.74,2.47,2.47,0,0,0,1.52,1.07c9.6.06,19.2,0,28.94,0v-4.13Zm-44.69-.16A1.94,1.94,0,0,0,72,137.84a2,2,0,1,0,.26-4C71,133.78,70.36,134.56,70.12,135.7Z"/><path class="cls-7" d="M203.11,136.91v-2H240v-4.18l8.78,5.11-8.66,5.09v-4Z"/><path class="cls-7" d="M657.93,136.92v-2h31.85v-4.2l8.78,5.13-8.64,5.07v-4Z"/><path class="cls-7" d="M433,136.87v-2h22.93v-4.1l8.71,5.09-8.58,5.06v-4Z"/><path class="cls-8" d="M161.61,198.33c-.62-.43-1.24-.84-1.84-1.29-.22-.16-.36-.42-.58-.59a2.85,2.85,0,0,0-4.11.6,4.4,4.4,0,0,0,.58,5.59,3,3,0,0,0,4.12-.68,9.4,9.4,0,0,1,2.18-1.34,4.49,4.49,0,0,1-5.19,4.21,5.11,5.11,0,0,1-4.33-5.11,5.21,5.21,0,0,1,4.45-5.53c2.05-.29,4.84,1,5.08,3.65Z"/><path class="cls-9" d="M177.42,198.11v-3.68c.91-.27,1.47-.27,1.45.94,0,3.09,0,6.18,0,9.09a35.8,35.8,0,0,1-4.1.44,3.08,3.08,0,0,1-3-2.27,4.06,4.06,0,0,1,.88-4.46,3,3,0,0,1,3.8-.56Zm0,3.14a2.24,2.24,0,0,0-2-2.54c-1.39,0-2,.85-2.07,2.1a2.23,2.23,0,0,0,1.91,2.64A2.17,2.17,0,0,0,177.37,201.25Z"/><path class="cls-10" d="M0,170.31c1.67,0,3.21-.08,4.75,0a3.18,3.18,0,0,1,.08,6.29,31.23,31.23,0,0,1-3.22,0v4.1l-1.61.1Zm1.68,1.18v4.09a30,30,0,0,0,3.94-1.27c.23-.1.19-1.65,0-1.75A29.28,29.28,0,0,0,1.68,171.49Z"/><path class="cls-8" d="M145,185.6c-1.48.12-2.77.29-4.07.31a2.14,2.14,0,0,1-2.38-2c-.15-1.42.71-2.12,2-2.38a7.09,7.09,0,0,0,1.15-.14,13.33,13.33,0,0,0,1.51-.76c-.14-.27-.3-.77-.42-.77a9.83,9.83,0,0,0-1.95.34c-.58.16-1.12.43-1.69.63-.07,0-.18-.08-.28-.13a3.08,3.08,0,0,1,3.64-2.52c1.71.19,2.46,1.17,2.48,3.28C145,182.81,145,184.19,145,185.6ZM143.18,182l-2.94,1.66c.39.3.77.83,1.18.86C142.7,184.58,143.26,183.83,143.18,182Z"/><path class="cls-8" d="M205.65,183.11c-.26,2.48-2.52,3.27-4.46,2.68S198.45,183.2,199,181a3.5,3.5,0,0,1,4.06-2.79c1.9.36,2.89,2,2.59,4.37h-5.47c.67.84,1,1.62,1.48,1.74a4.34,4.34,0,0,0,2.15-.32A12.05,12.05,0,0,0,205.65,183.11Zm-5.11-2.53.25.5H204l.2-.39c-.57-.37-1.14-1-1.71-1S201.19,180.25,200.54,180.58Z"/><path class="cls-8" d="M13.93,175.61c.73-2,2-2.78,3.88-2.43,1.61.3,2.25,1.28,2.26,3.47v4c-1.49.11-2.89.31-4.28.29a2.08,2.08,0,0,1-2.18-2.06,2,2,0,0,1,1.76-2.26,14.3,14.3,0,0,0,1.46-.23,9.53,9.53,0,0,0,1.47-.8c-.17-.26-.34-.72-.51-.72a5.15,5.15,0,0,0-1.83.27,12.07,12.07,0,0,0-1.76,1Zm4.45,1.81c-1.12.33-2.5-.34-2.92,1.23-.05.19.68.83,1.07.85C17.79,179.56,18.37,178.83,18.38,177.42Z"/><path class="cls-8" d="M70.74,177.62H65.15c.66.81,1,1.58,1.47,1.71a4.42,4.42,0,0,0,2.15-.29,16.6,16.6,0,0,0,2-.86c-.82,2.36-2.29,3.16-4.27,2.68a3.73,3.73,0,0,1-2.6-4.54,3.53,3.53,0,0,1,3.85-3.11C69.77,173.42,70.83,174.9,70.74,177.62ZM69,176.09l.22-.52a5.92,5.92,0,0,0-2.1-.85c-.53,0-1.07.66-1.61,1l.25.33Z"/><path class="cls-8" d="M187.32,201.58h-5.1c.42,2,1.8,2.51,3.24,1.42a10,10,0,0,1,1.81-.84c-.58,2.29-2,3.13-4.06,2.69a3.68,3.68,0,0,1-2.7-4.47,3.56,3.56,0,0,1,3.94-3.2C186.46,197.45,187.52,199,187.32,201.58Zm-5.17-2,.25.52h3.25l.21-.39c-.58-.36-1.16-1-1.75-1S182.81,199.22,182.15,199.54Z"/><path class="cls-10" d="M190.72,178.41c1.19-.36,1.62,0,1.58,1.15-.07,2,0,4.07,0,6a30.94,30.94,0,0,1-4,.4,2.38,2.38,0,0,1-2.61-2.26c-.11-1.74,0-3.5,0-5.35h1.7a39.32,39.32,0,0,0,0,4.36c.08.62.72,1.17,1.1,1.75.65-.46,1.73-.82,1.87-1.41A28.08,28.08,0,0,0,190.72,178.41Z"/><path class="cls-10" d="M170.52,185.56c-1.31.16-2.58.4-3.85.45a2.57,2.57,0,0,1-2.72-2.58c-.12-1.64,0-3.3,0-5.06l1.75-.09c0,1.48,0,2.84,0,4.2,0,.91,0,1.88,1.23,2s1.87-.69,2-1.79c.11-1.42,0-2.85,0-4.35h1.62Z"/><path class="cls-8" d="M122,185.75H120.4v-7.19c1.36-.15,2.62-.38,3.89-.41a2.54,2.54,0,0,1,2.66,2.61c.12,1.63,0,3.29,0,5h-1.79v-4.07c0-1,0-2-1.32-2.09s-1.8.83-1.88,1.91C121.89,182.87,122,184.25,122,185.75Z"/><path class="cls-10" d="M57.19,180.75H55.67v-7.24a29.92,29.92,0,0,1,4.54-.27,2.21,2.21,0,0,1,2,2.26c.07,1.7,0,3.41,0,5.24l-1.72.11a37,37,0,0,0,0-4.36c-.09-.68-.75-1.28-1.15-1.91-.65.55-1.71,1-1.87,1.67A24.35,24.35,0,0,0,57.19,180.75Z"/><path class="cls-9" d="M134.34,200c.34-2.36,1.61-3.17,3.47-2.88,1.56.24,2.3,1.21,2.32,3.07,0,1.49,0,3,0,4.28a38.46,38.46,0,0,1-3.92.41,2.19,2.19,0,0,1-2.45-2c-.19-1.44.63-2.15,1.91-2.44a10.88,10.88,0,0,0,1.31-.18,10.09,10.09,0,0,0,1.45-.84c-.18-.25-.35-.71-.53-.71a5.11,5.11,0,0,0-1.83.26A11,11,0,0,0,134.34,200Zm4.09,1.55-.49-.57-2.47,1.73c.41.26.83.74,1.25.74A1.54,1.54,0,0,0,138.43,201.58Z"/><path class="cls-8" d="M141.76,202.23c.52.24,1,.52,1.56.71a8.05,8.05,0,0,0,2,.46c.22,0,.64-.52.66-.82a1.15,1.15,0,0,0-.66-.8,12.52,12.52,0,0,1-2.2-.67,2.66,2.66,0,0,1-1.25-1.7,2.56,2.56,0,0,1,1.09-1.83c1.85-1.21,4.12-.11,4.49,2.39-.66-.31-1.14-.52-1.61-.75s-.85-.63-1.26-.62-.75.46-1.12.71c.29.28.54.67.88.81.5.21,1.2.09,1.59.39.69.53,1.64,1.25,1.68,1.93a3,3,0,0,1-1.4,2.16C144.39,205.65,142.28,204.67,141.76,202.23Z"/><path class="cls-8" d="M146.6,183.25c.51.25,1,.52,1.55.75a3.59,3.59,0,0,0,1.48.51c.38,0,.74-.49,1.11-.76-.28-.34-.5-.82-.86-1-.59-.28-1.38-.21-1.88-.56s-1.44-1.21-1.4-1.77a2.91,2.91,0,0,1,1.44-1.94c1.83-.94,3.61,0,4.28,2.48-.74-.31-1.23-.51-1.71-.73s-.86-.6-1.28-.59-.75.45-1.13.7c.3.27.56.66.91.8.66.26,1.41.3,2.06.58a2,2,0,0,1,.51,3.5A3.08,3.08,0,0,1,146.6,183.25Z"/><path class="cls-8" d="M170.45,201.07a3.58,3.58,0,0,1-3.7,3.78,3.66,3.66,0,0,1-3.57-3.79,3.74,3.74,0,0,1,3.66-3.9A3.65,3.65,0,0,1,170.45,201.07Zm-1.6-.15c-.06-1.08-.46-2.1-1.94-2.18a2,2,0,0,0-2.1,2.22,2.19,2.19,0,0,0,2,2.42C168,203.43,168.82,202.51,168.85,200.92Z"/><path class="cls-7" d="M353,134.86v2H337.05v-2Z"/><path class="cls-8" d="M50.46,180.87a3.57,3.57,0,0,1-3.66-3.81,3.66,3.66,0,0,1,3.66-3.87A3.78,3.78,0,0,1,54.09,177,3.69,3.69,0,0,1,50.46,180.87Zm2-3.7a2.09,2.09,0,0,0-1.93-2.4c-1.27-.06-2.06.77-2.1,2.2s.71,2.4,1.89,2.44A2.13,2.13,0,0,0,52.46,177.17Z"/><path class="cls-8" d="M178.82,181.09a10.42,10.42,0,0,1-1.76-1,1.65,1.65,0,0,0-2.38-.09c-1.09.91-1.05,3.46.19,4.1a3.41,3.41,0,0,0,2.21-.21,11.17,11.17,0,0,0,2-1.15c-.42,2.37-1.59,3.24-3.59,3.14a3.55,3.55,0,0,1-3.33-3.5,3.83,3.83,0,0,1,3-4.18,3.31,3.31,0,0,1,3.92,2.41Z"/><path class="cls-8" d="M28.17,176.08a10.53,10.53,0,0,1-1.78-1c-1.14-.92-2.53-.73-2.89.7a4.54,4.54,0,0,0,.31,2.95c.53,1,1.58,1,2.54.22a21.06,21.06,0,0,1,2-1.23C28,180,26.89,180.91,25,180.88a3.47,3.47,0,0,1-3.51-3.29,3.88,3.88,0,0,1,2.76-4.35C26.07,172.78,27.66,173.68,28.17,176.08Z"/><path class="cls-10" d="M132.67,174.83v1.81c-.73.34-2.2-.25-1.77,1.4.51.61,2.42-.43,1.71,1.56l-1.72.17v5.93l-1.49.14a1.7,1.7,0,0,1-.2-.51c0-1.33,0-2.66,0-4,0-.66.46-1.65-.86-1.76-.09,0-.12-.67-.18-1,1.36-.19.76-1.68,1.39-2.19A16.08,16.08,0,0,1,132.67,174.83Z"/><path class="cls-10" d="M38.77,175c-.88-.56-2.66-.93-.25-1.92.33-.13.24-1.29.38-2.14l1.36-.11.15,2.34,1.64.16c.68,1.72-.76,1.21-1.47,1.42-.77,3.3-.4,4.44,1.59,4.79v1.27a5.42,5.42,0,0,1-2.1-.16A2.73,2.73,0,0,1,38.83,179,25.79,25.79,0,0,1,38.77,175Z"/><path class="cls-10" d="M154.19,175.91h1.36l.15,2.27,1.63.16c.7,1.77-.8,1.18-1.49,1.44-.73,3.41-.4,4.47,1.59,4.71l.07,1.35a5.93,5.93,0,0,1-2.18-.19,2.64,2.64,0,0,1-1.21-1.58c-.2-1,0-2-.09-3-.07-.5-.56-.94-.76-1.44a6.18,6.18,0,0,1-.21-1.24C154.68,178.23,153.8,176.9,154.19,175.91Z"/><path class="cls-10" d="M30.13,175c-1.09-.52-2.19-.93-.23-1.84.34-.16.23-1.31.35-2.17l1.4-.11.14,2.21c.49.6,2.26-.4,1.69,1.51l-1.52.22c-.75,3.36-.39,4.44,1.59,4.78v1.1c-2.75.41-3.42-.17-3.42-2.9Z"/><path class="cls-10" d="M182.4,176v2.25l1.7.12c.29,1.27.29,1.27-1.51,1.44-.65,3.71-.38,4.47,2.07,4.79-.38.52-.61,1.17-.93,1.21-1.19.18-2.47.09-2.79-1.38a24,24,0,0,1-.17-3.3c0-.57.38-1.45-.78-1.43a5,5,0,0,1,.06-1.35c.15-.47.71-.88.69-1.3C180.69,175.83,181.27,175.71,182.4,176Z"/><path class="cls-10" d="M116.23,175.36h1.65v10.38l-1.65.09Z"/><path class="cls-8" d="M194.43,178.44h3.88l.12,1.21c-4.06.66-1.83,3.93-2.68,6.07h-1.32Z"/><path class="cls-10" d="M10.35,180.75H9V173.5l3.9-.24.14,1.42C8.91,175.33,11.22,178.62,10.35,180.75Z"/><path class="cls-10" d="M137.88,179.71c-4.07.75-1.68,4-2.63,6h-1.33v-7.24l3.83-.2Z"/><path class="cls-8" d="M160.16,185.77h-1.27v-7.26l3.84-.21.11,1.4C158.76,180.38,161.16,183.63,160.16,185.77Z"/><path class="cls-8" d="M72.52,173.46l3.85-.18.14,1.38c-4.12.6-1.76,3.92-2.67,6.07l-1.32.1Z"/><path class="cls-8" d="M35,173.38h1.58v7.38H35Z"/><path class="cls-9" d="M45.12,180.75H43.56V173.4h1.56Z"/><path class="cls-10" d="M34.79,170.35h1.77v1.82l-1.66.08Z"/><path d="M45.12,172.13H43.58V170.4h1.54Z"/><path class="cls-11" d="M537.59,40.14V60c0,3.1-1.52,4.64-4.57,4.65H492.87c-3.05,0-4.56-1.56-4.57-4.65V20c0-3.15,1.53-4.65,4.74-4.65h39.81c3.29,0,4.74,1.48,4.74,4.82Zm-24.73,22.8q10.15,0,20.32,0c2,0,2.75-.67,2.75-2.65q0-20.31,0-40.62c0-2-.7-2.66-2.74-2.66Q513,17,492.71,17c-2.09,0-2.75.68-2.75,2.81V60.11c0,2.19.66,2.83,2.9,2.83Q502.86,63,512.86,62.94Z"/><path class="cls-11" d="M552.28,167.66q0-9.82,0-19.64c0-3.34,1.45-4.82,4.73-4.82h39.82c3.28,0,4.73,1.48,4.73,4.82v39.62c0,3.33-1.45,4.81-4.74,4.81H557c-3.28,0-4.73-1.48-4.73-4.82Q552.27,177.65,552.28,167.66Zm24.66-22.8q-10.08,0-20.16,0c-2.16,0-2.84.65-2.84,2.72q0,20.23,0,40.46c0,2.09.67,2.75,2.8,2.75q20.16,0,40.32,0c2.2,0,2.84-.65,2.84-2.89q0-20.06,0-40.12c0-2.31-.62-2.92-3-2.92Q586.92,144.84,576.94,144.86Z"/><path class="cls-11" d="M601.56,104q0,9.92,0,19.81c0,3.2-1.49,4.7-4.68,4.7h-40q-4.62,0-4.62-4.59,0-20.06,0-40.12c0-3,1.57-4.53,4.51-4.53q20.16,0,40.32,0c2.84,0,4.44,1.59,4.45,4.43Q601.58,93.87,601.56,104Zm-1.65-.07q0-10.16,0-20.31c0-2-.69-2.69-2.7-2.7H556.72c-2.12,0-2.78.67-2.78,2.79q0,20.15,0,40.28c0,2.22.65,2.87,2.88,2.87H597c2.33,0,2.95-.63,2.95-3Q599.92,113.93,599.91,103.94Z"/><path class="cls-11" d="M513,207.13h20c3.09,0,4.63,1.52,4.64,4.58v40.11c0,3-1.56,4.55-4.5,4.55H492.78c-2.86,0-4.47-1.58-4.47-4.4q0-20.24,0-40.45c0-2.81,1.63-4.38,4.49-4.39Zm-.1,47.59h19.83c2.69,0,3.24-.53,3.24-3.16V211.94c0-2.57-.56-3.16-3.08-3.16H493c-2.47,0-3.08.59-3.08,3v39.95c0,2.4.61,3,3.08,3Z"/><path class="cls-11" d="M552.28,231.77q0-10,0-20c0-3.16,1.52-4.66,4.72-4.66h39.81c3.29,0,4.75,1.48,4.75,4.8v39.62c0,3.41-1.44,4.83-4.89,4.83H557.19c-3.53,0-4.91-1.4-4.91-5Q552.27,241.59,552.28,231.77Zm1.65-.18v20c0,2.58.57,3.16,3.08,3.16h39.82c2.51,0,3.07-.58,3.08-3.16V211.94c0-2.57-.57-3.16-3.08-3.16H557c-2.51,0-3.08.59-3.08,3.16Z"/><path class="cls-11" d="M537.59,167.87v19.81c0,3.31-1.46,4.77-4.78,4.77H493c-3.2,0-4.69-1.5-4.7-4.69V147.81c0-3.07,1.54-4.6,4.62-4.61h40.14c3,0,4.52,1.57,4.53,4.52Q537.61,157.8,537.59,167.87ZM513,190.8h19.82c2.58,0,3.16-.57,3.16-3.08V147.93c0-2.51-.58-3.07-3.16-3.07H493.12c-2.58,0-3.16.56-3.16,3.07v39.79c0,2.51.58,3.08,3.16,3.08Z"/><path class="cls-11" d="M576.75,64.6H557.1c-3.34,0-4.82-1.45-4.82-4.73q0-19.9,0-39.79c0-3.28,1.48-4.73,4.82-4.73h39.64c3.4,0,4.82,1.45,4.82,4.9V59.7c0,3.51-1.41,4.9-5,4.9Zm23.16-24.54V20.25c0-2.7-.54-3.25-3.17-3.25H557.09c-2.58,0-3.16.57-3.16,3.08V59.87c0,2.47.59,3.07,3,3.07q20,0,40,0c2.41,0,3-.61,3-3.07Z"/><path class="cls-11" d="M513.11,79.27h19.66c3.34,0,4.82,1.45,4.82,4.73v39.78c0,3.21-1.5,4.73-4.66,4.73H493c-3.16,0-4.66-1.52-4.66-4.73V84c0-3.28,1.48-4.73,4.82-4.73Zm-.16,47.6h19.82c2.58,0,3.16-.56,3.16-3.08V84c0-2.51-.58-3.08-3.16-3.08H493.12c-2.58,0-3.16.56-3.16,3.08v39.78c0,2.51.58,3.08,3.16,3.08Z"/><path class="cls-12" d="M285.09,135.74v4h-1.61V129.5c2.09-.19,4.25-.71,6.26.43a3.21,3.21,0,0,1-1.56,5.79C287.21,135.81,286.23,135.74,285.09,135.74Zm.06-1.06a32.78,32.78,0,0,0,4-1.39c.21-.1.12-1.63-.13-1.73a28,28,0,0,0-3.84-1Z"/><path class="cls-12" d="M295.9,135.19c.87-2.47,2.12-3.26,4-3,1.63.24,2.35,1.21,2.38,3.24,0,1.22,0,2.44,0,3.66a4.3,4.3,0,0,1-.09.57,40,40,0,0,1-4.37.24,2,2,0,0,1-2-2.2,2.09,2.09,0,0,1,1.9-2.16c.64-.15,1.33-.13,2-.34.33-.11.54-.56.8-.85-.34-.22-.69-.61-1-.61a4.25,4.25,0,0,0-1.33.5Zm4.43,1-2.72,1.49c.36.3.71.85,1.09.88C299.88,138.58,300.52,138,300.33,136.15Z"/><path class="cls-12" d="M304.1,132.63c1.49-.17,2.73-.38,4-.43a2.57,2.57,0,0,1,2.73,2.55c.12,1.64,0,3.29,0,5h-1.77c0-1.38,0-2.75,0-4.11,0-.93-.07-1.87-1.27-2a1.68,1.68,0,0,0-1.89,1.68c-.17,1.42-.18,2.85-.26,4.36-.94.23-1.6.26-1.56-1.05C304.14,136.66,304.1,134.62,304.1,132.63Z"/><path class="cls-12" d="M294.08,139.85l-1.57-.07V129.45l1.57-.16Z"/><path class="cls-12" d="M383.17,139.64c-1.45.55-2.11.05-2.34-1.06-.3-1.51-1.43-1.25-2.46-1.26s-2.19-.24-2.47,1.25c-.24,1.31-1.06,1.5-2.36,1.13,1.27-3.29,2.5-6.54,3.79-9.76a1.23,1.23,0,0,1,1-.58,1.53,1.53,0,0,1,1.13.67C380.73,133.2,381.93,136.4,383.17,139.64Zm-6.29-4h3l-1.51-4.15C377.77,133.15,377.36,134.32,376.88,135.66Z"/><path class="cls-12" d="M384.79,132.61c1.35-.15,2.39-.29,3.45-.4a3.15,3.15,0,0,1,3.29,1.78,4.22,4.22,0,0,1-.22,4.56,3.28,3.28,0,0,1-3.69,1.24,6.35,6.35,0,0,1-1.09-.43c-1,1,1,3.23-1.74,3.57Zm1.49,3.34c0,1.51.81,2.6,2,2.51a2,2,0,0,0,2-2.21,2.1,2.1,0,0,0-2.05-2.47C386.89,133.84,386.33,134.67,386.28,136Z"/><path class="cls-12" d="M395.22,139.24v3.49H393.7V132.58a29,29,0,0,1,4.32-.32c2.07.16,3.41,2.56,2.88,4.83a3.41,3.41,0,0,1-4.39,2.7A11.27,11.27,0,0,1,395.22,139.24Zm4.07-3.13a2.16,2.16,0,0,0-2.05-2.34c-1.27,0-2,.86-2,2.31a2.18,2.18,0,0,0,2,2.4A2.26,2.26,0,0,0,399.29,136.11Z"/><path class="cls-12" d="M405.77,142.43c.31-.36.55-.89.94-1.06,1.36-.61,1.79-1.41,1.22-2.87-.78-2-1.62-4-2.6-6.33,3.25.46,2.44,3.51,3.82,4.8,1.48-1.17.36-4.32,3.64-4.4-1.27,3.08-2.44,6.21-3.89,9.2-.34.7-1.64.94-2.5,1.4Z"/><path class="cls-13" d="M402.66,139.76V129.45l1.54-.11v10.49Z"/><path class="cls-4" d="M149.12,140.86c-5.44,0-10.87,0-16.3,0-.56,0-1.11-.54-1.67-.83.54-.25,1.09-.72,1.63-.73q16.31-.06,32.6,0c.55,0,1.1.55,1.66.85-.54.24-1.08.7-1.62.7C160,140.88,154.55,140.86,149.12,140.86Z"/><path class="cls-4" d="M144.76,132.25c3.87,0,7.75,0,11.63,0,.56,0,1.1.55,1.65.85a4.53,4.53,0,0,1-1.63.7q-11.81.07-23.6,0c-.56,0-1.11-.54-1.66-.83.55-.25,1.09-.71,1.64-.72C136.78,132.22,140.77,132.25,144.76,132.25Z"/><path class="cls-4" d="M162.53,126.88c-3.26,0-6.53,0-9.8,0-.53,0-1.06-.49-1.59-.75.51-.28,1-.8,1.54-.81q9.88-.08,19.77,0c.54,0,1.06.5,1.6.76-.52.28-1,.78-1.55.79C169.18,126.92,165.86,126.88,162.53,126.88Z"/><path class="cls-4" d="M171.38,133.87c-2.54,0-5.09,0-7.63,0a4.79,4.79,0,0,1-1.61-.72c.5-.29,1-.83,1.51-.83q8-.09,15.95,0c.48,0,1,.49,1.44.75-.51.28-1,.79-1.52.8C176.81,133.92,174.1,133.87,171.38,133.87Z"/><path class="cls-4" d="M140.09,146.23c2.49,0,5,0,7.47,0,.51,0,1,.56,1.48.86-.48.24-1,.69-1.46.69q-7.47.09-14.94,0c-.5,0-1-.55-1.49-.84.49-.25,1-.7,1.47-.71C135.11,146.19,137.6,146.23,140.09,146.23Z"/><path class="cls-6" d="M135.14,122.82c-1.19-1.12-2.24-2-3.18-3-.3-.32-.29-.92-.42-1.39.47.08,1.09,0,1.4.27a36.26,36.26,0,0,1,3.39,3.4,1.56,1.56,0,0,1,.1,1.49,43,43,0,0,1-3.62,3.65c-.25.23-.84.11-1.27.15.09-.43.05-1,.31-1.28C132.81,125,133.87,124.05,135.14,122.82Z"/><path class="cls-2" d="M143.6,126.88a20.47,20.47,0,0,1-2.48,0c-.35,0-.67-.41-1-.63.28-.28.54-.79.83-.8,1.76-.08,3.54-.08,5.3,0,.29,0,.55.53.83.81-.28.21-.54.59-.83.62a26,26,0,0,1-2.65,0Z"/><path class="cls-14" d="M631.9,135.85c-.14,1.15-.72,2-2,2a2,2,0,0,1-.11-3.92A1.94,1.94,0,0,1,631.9,135.85Z"/><path class="cls-13" d="M749.35,233.4c-11.28,2.72-22.75,1.2-34.12,1.19-8.45,0-15.38-6.75-17-14.83a18.92,18.92,0,0,1,16.07-22.85,22.27,22.27,0,0,1,6.6.35,2.61,2.61,0,0,0,2.78-.79,23,23,0,0,1,32.13-2.14,22.71,22.71,0,0,1,7.89,14.39,25.88,25.88,0,0,1-.9,10.34,23.58,23.58,0,0,0-4.74-.12,10.87,10.87,0,0,0-9,13.15C749.2,232.53,749.27,233,749.35,233.4Zm-19.57-12.14h-1.4c-2.16,0-4.33,0-6.49.05-.34,0-.67.52-1,.8a8.19,8.19,0,0,0,1,.64,1.81,1.81,0,0,0,.66,0h16.65a2.64,2.64,0,0,0,1-.06,1,1,0,0,0,.59-.65.92.92,0,0,0-.53-.7,4.43,4.43,0,0,0-1.32-.08h-7.49V214.5c2.46,0,4.83,0,7.21,0a2.66,2.66,0,0,0,2.92-2.86c0-1.28,0-2.56,0-3.83a2.56,2.56,0,0,0-2.71-2.72c-5.33-.05-10.66,0-16,0a2.58,2.58,0,0,0-2.71,2.73c0,1.11,0,2.22,0,3.33,0,2.47.91,3.35,3.42,3.36h6.22Z"/><path class="cls-12" d="M757.66,232.5c1.9-2,3.46-3.74,5.05-5.42.55-.57,1.11-1.52,2-.74s.06,1.46-.48,2c-1.72,1.87-3.49,3.69-5.19,5.58-.87,1-1.61,1-2.48,0a31,31,0,0,1-2.18-2.27c-.29-.4-.15-1.12-.2-1.69.53.08,1.2,0,1.55.28A16.74,16.74,0,0,1,757.66,232.5Z"/><path class="cls-13" d="M740.16,151.83q-14.91,0-29.82,0c-1.87,0-2.47-.61-2.47-2.5q0-20.47,0-40.95c0-1.88.61-2.49,2.49-2.49q20.49,0,41,0c1.89,0,2.5.61,2.5,2.48q0,14.9,0,29.79c-4.31-.85-8.11,0-11.15,3.35C740,144.49,739.4,148,740.16,151.83Zm-9.4-12.25c2.66,0,5.32,0,8,0a2.61,2.61,0,0,0,2.82-2.78q.08-2,0-4a2.54,2.54,0,0,0-2.63-2.63c-5.37,0-10.75,0-16.13,0a2.55,2.55,0,0,0-2.64,2.61c-.07,1.22,0,2.44,0,3.66,0,2.17,1,3.13,3.13,3.15C725.77,139.6,728.26,139.58,730.76,139.58Zm-.07-21.42c-2.55,0-5.1,0-7.65,0a2.65,2.65,0,0,0-2.9,2.88c0,1.28,0,2.55,0,3.83a2.57,2.57,0,0,0,2.73,2.7q8,.06,16,0a2.58,2.58,0,0,0,2.72-2.71c.05-1.22,0-2.44,0-3.66,0-2-1-3-3.07-3C735.9,118.14,733.29,118.16,730.69,118.16Z"/><path class="cls-12" d="M748.57,151.7c2.07-2.23,3.64-4,5.33-5.67.42-.41,1.53-.75,1.87-.5.92.69.07,1.33-.44,1.88-1.77,1.9-3.57,3.77-5.31,5.69-.81.9-1.53,1-2.36.05A24.41,24.41,0,0,1,745.6,151a5.13,5.13,0,0,1-.46-1.82c.61.12,1.36.06,1.79.4A11.3,11.3,0,0,1,748.57,151.7Z"/><path class="cls-13" d="M749.35,67.59c-11.28,2.72-22.75,1.2-34.12,1.19-8.45,0-15.38-6.75-17-14.83A18.93,18.93,0,0,1,714.32,31.1a22,22,0,0,1,6.6.36,2.64,2.64,0,0,0,2.78-.79,22.2,22.2,0,0,1,13.73-7.45,22.48,22.48,0,0,1,18.4,5.3,22.71,22.71,0,0,1,7.89,14.39,25.88,25.88,0,0,1-.9,10.34,23.58,23.58,0,0,0-4.74-.12,10.87,10.87,0,0,0-9,13.15C749.2,66.72,749.27,67.15,749.35,67.59Zm-17.88-18.9c2.43,0,4.8,0,7.18,0a2.65,2.65,0,0,0,2.92-2.86c0-1.28,0-2.56,0-3.83a2.56,2.56,0,0,0-2.71-2.72q-8-.06-16,0A2.57,2.57,0,0,0,720.15,42c0,1.11,0,2.22,0,3.33,0,2.47.9,3.35,3.43,3.37h6.21v6.76c-2.52,0-5,0-7.39,0a4.41,4.41,0,0,0-1.51.65c.51.27,1,.77,1.51.78,5.61.06,11.21,0,16.82,0a2.7,2.7,0,0,0,1-.06,1,1,0,0,0,.58-.65.89.89,0,0,0-.53-.69,4.45,4.45,0,0,0-1.32-.09h-7.57c0-2,0-3.72,0-5.48C731.36,49.59,731.42,49.21,731.47,48.69Z"/><path class="cls-12" d="M757.74,66.6c1.84-2,3.44-3.71,5.06-5.43.56-.59,1.21-1.48,2-.51.24.31-.13,1.4-.53,1.87-1.71,2-3.54,3.8-5.29,5.72-.76.82-1.44.9-2.24.07a33.36,33.36,0,0,1-2.41-2.5c-.27-.35-.1-1-.13-1.57.53.07,1.18,0,1.56.24A18.08,18.08,0,0,1,757.74,66.6Z"/><path class="cls-13" d="M13.15,132.88q0-10.16,0-20.3c0-2.13.54-2.68,2.62-2.68q20.4,0,40.79,0c2,0,2.56.58,2.56,2.58q0,20.37,0,40.76c0,2-.57,2.6-2.54,2.6h-41c-1.87,0-2.47-.61-2.47-2.5Q13.15,143.11,13.15,132.88Zm20.11,2.26H29.6c-3.32,0-5.19,1.85-5.15,5.12a4.93,4.93,0,0,0,.64,2.19c1.4-.17.71-1.35.75-2.09.13-2.42,1.32-3.73,3.7-3.76s4.88,0,7.32,0a3.33,3.33,0,0,1,3.55,3.53,15.91,15.91,0,0,0,.06,1.83.88.88,0,0,0,.66.55.92.92,0,0,0,.69-.53,5.18,5.18,0,0,0-4.73-6.84C35.81,135.11,34.53,135.14,33.26,135.14Zm-.17-2.54a4.73,4.73,0,1,0-4.68-4.78A4.68,4.68,0,0,0,33.09,132.6Zm10.79-4.78a4.62,4.62,0,0,0-3.17-4.4c-.36-.1-.83.2-1.25.32.19.35.29.85.59,1,3.15,2,3.16,4.33.05,6.19-.31.19-.39.75-.57,1.14.38.09.8.33,1.14.24A4.64,4.64,0,0,0,43.88,127.82Zm4,12.7c0-2.66-1.1-4.5-3.12-5.09-.37-.11-.85.16-1.28.26.12.32.17.87.38.95,2.28.8,2.65,2.56,2.58,4.66,0,.41.44.84.67,1.26a8.5,8.5,0,0,0,.75-1.22A2.23,2.23,0,0,0,47.88,140.52Z"/><path class="cls-14" d="M70.12,135.7c.24-1.14.88-1.92,2.14-1.81a2,2,0,1,1-.26,4A1.94,1.94,0,0,1,70.12,135.7Z"/><path class="cls-2" d="M177.37,201.25a2.17,2.17,0,0,1-2.2,2.2,2.23,2.23,0,0,1-1.91-2.64c.1-1.25.68-2.11,2.07-2.1A2.24,2.24,0,0,1,177.37,201.25Z"/><path class="cls-14" d="M1.68,171.49a29.28,29.28,0,0,1,3.89,1.07c.24.1.28,1.65,0,1.75a30,30,0,0,1-3.94,1.27Z"/><path class="cls-2" d="M143.18,182c.08,1.86-.48,2.61-1.76,2.52-.41,0-.79-.56-1.18-.86Z"/><path class="cls-2" d="M200.54,180.58c.65-.33,1.29-.91,1.94-.91s1.14.65,1.71,1l-.2.39h-3.2Z"/><path class="cls-2" d="M18.38,177.42c0,1.41-.59,2.14-1.85,2.08-.39,0-1.12-.66-1.07-.85C15.88,177.08,17.26,177.75,18.38,177.42Z"/><path class="cls-2" d="M69,176.09H65.79l-.25-.33c.54-.38,1.08-1,1.61-1a5.92,5.92,0,0,1,2.1.85Z"/><path class="cls-2" d="M182.15,199.54c.66-.32,1.31-.89,2-.88s1.17.65,1.75,1l-.21.39H182.4Z"/><path class="cls-2" d="M138.43,201.58a1.54,1.54,0,0,1-1.71,1.9c-.42,0-.84-.48-1.25-.74l2.47-1.73Z"/><path class="cls-14" d="M168.85,200.92c0,1.59-.88,2.51-2.08,2.46a2.19,2.19,0,0,1-2-2.42,2,2,0,0,1,2.1-2.22C168.39,198.82,168.79,199.84,168.85,200.92Z"/><path class="cls-14" d="M52.46,177.17a2.13,2.13,0,0,1-2.14,2.24c-1.18,0-1.93-1-1.89-2.44s.83-2.26,2.1-2.2A2.09,2.09,0,0,1,52.46,177.17Z"/><path class="cls-1" d="M512.86,62.94q-10,0-20,0c-2.24,0-2.9-.64-2.9-2.83V19.82c0-2.13.66-2.81,2.75-2.81q20.25,0,40.48,0c2,0,2.74.68,2.74,2.66q0,20.31,0,40.62c0,2-.71,2.65-2.75,2.65Q523,63,512.86,62.94Zm-.08-10.06c1.5,0,3,.1,4.49,0a3.51,3.51,0,0,0,2.16-.93c2.08-2.43,4.05-4.95,6-7.5a2.8,2.8,0,0,0,.41-2c-.66-3.17-1.41-6.33-2.2-9.47a2.16,2.16,0,0,0-1-1.24c-2.95-1.49-5.93-2.94-8.94-4.32a2.25,2.25,0,0,0-1.69,0c-2.86,1.33-5.71,2.7-8.49,4.19a3.24,3.24,0,0,0-1.5,1.8c-.76,2.92-1.43,5.88-1.93,8.86a4.29,4.29,0,0,0,.72,2.69c.93,1.47,2.15,2.75,3.16,4.18,1.79,2.53,3.77,4.62,7.31,3.78A6.73,6.73,0,0,1,512.78,52.88Z"/><path class="cls-1" d="M599.91,103.94q0,10,0,20c0,2.32-.62,3-2.95,3H556.81c-2.23,0-2.87-.65-2.88-2.87q0-20.15,0-40.28c0-2.12.66-2.79,2.78-2.79H597.2c2,0,2.7.69,2.7,2.7Q599.92,93.79,599.91,103.94ZM566.5,93.45v9.88h9.85V93.45Zm11,9.86h9.88V93.5h-9.88Zm-1.08,1.19h-9.84v9.78h9.84Zm1.11-.06v9.89h9.88v-9.89Z"/><path class="cls-1" d="M512.86,254.72H493c-2.47,0-3.08-.59-3.08-3V211.78c0-2.41.61-3,3.08-3h39.81c2.52,0,3.08.59,3.08,3.16v39.62c0,2.63-.55,3.16-3.24,3.16Zm-2.81-25.94.45.09c0,.51.12,1,.13,1.53,0,1.67,0,3.33,0,5,0,1.19.35,2.19,1.72,2.16s1.62-1,1.61-2.09c0-1.55,0-3.11,0-4.66,0-1.17.42-2,1.68-2s1.73.74,1.7,2c0,1.49,0,3,0,4.49,0,1.22.22,2.35,1.71,2.32s1.62-1.09,1.6-2.26c0-1.5,0-3,0-4.49,0-1.16.44-2,1.69-2s1.72.77,1.7,2c0,1.66,0,3.33,0,5,0,1.05.53,1.89,1.7,1.84s1.59-.84,1.57-1.95c0-2,0-4,0-6a3.3,3.3,0,0,0-3.07-3.52,22.83,22.83,0,0,0-4.76.77c-1.85-1.67-4.09-1.12-6.26.35-3.22-2.24-5.39-1.62-6.88,1.87l-1.88,4.41c-1-2.35-1.91-4.37-2.77-6.4-.46-1.05-1.23-1.47-2.26-1s-1,1.34-.61,2.27c1.16,2.51,2.24,5.07,3.53,7.52.38.71,1.4,1.58,2.06,1.53a3.33,3.33,0,0,0,2.16-1.65c1.05-1.82,1.82-3.79,2.72-5.69C509.5,229.66,509.79,229.22,510.05,228.78Z"/><path class="cls-1" d="M553.93,231.59V211.94c0-2.57.57-3.16,3.08-3.16h39.82c2.51,0,3.07.59,3.08,3.16v39.62c0,2.58-.57,3.16-3.08,3.16H557c-2.51,0-3.08-.58-3.08-3.16Zm25.48.6a2.53,2.53,0,0,0-2.59-2.44,2.5,2.5,0,0,0,.12,5A2.53,2.53,0,0,0,579.41,232.19Zm8.51,0a2.5,2.5,0,1,0-2.51,2.54A2.53,2.53,0,0,0,587.92,232.21Zm-17,.07a2.5,2.5,0,1,0-2.57,2.47A2.54,2.54,0,0,0,570.92,232.28Z"/><path class="cls-1" d="M513,190.8H493.12c-2.58,0-3.16-.57-3.16-3.08V147.93c0-2.51.58-3.07,3.16-3.07h39.65c2.58,0,3.16.56,3.16,3.07v39.79c0,2.51-.58,3.08-3.16,3.08ZM502,168c0,3.1,0,6.2,0,9.31,0,2.19.7,2.92,2.85,2.92h16.3c2.08,0,2.83-.75,2.84-2.77q0-9.39,0-18.78c0-2.08-.74-2.84-2.77-2.85H504.71c-2,0-2.75.78-2.76,2.86C501.94,161.81,502,164.91,502,168Z"/><path class="cls-13" d="M599.91,40.06V59.87c0,2.46-.59,3.07-3,3.07q-20,0-40,0c-2.41,0-3-.6-3-3.07V20.08c0-2.51.58-3.08,3.16-3.08h39.65c2.63,0,3.17.55,3.17,3.25ZM574.81,39l-.32.07c-.47-1.82-1-3.64-1.4-5.48-.27-1.33-.93-1.59-2.23-1.15.79,2.6,1.59,5.18,2.35,7.76.23.8.29,1.62,1.5,1.57s1-.92,1.23-1.61c.44-1.69.86-3.39,1.28-5.09.75,2,1.18,3.95,1.72,5.86a1.39,1.39,0,0,0,1,.77c.39,0,1.1-.22,1.2-.51,1-2.9,1.83-5.83,2.72-8.74-1.38-.5-1.92,0-2.18,1.13-.43,1.93-1,3.83-1.46,5.74-.74-2.05-1.17-4.11-1.72-6.12-.11-.39-.72-.92-1.06-.89a1.6,1.6,0,0,0-1.2.9C575.68,35.07,575.27,37,574.81,39ZM561,44.77a22.29,22.29,0,0,0,19.92,6c4.69-.79,8.49-2.71,9-4.64A33,33,0,0,1,561,44.77Zm7.07-8.51c-2.22-.17-4.73-.84-5.75,2.05a2.6,2.6,0,0,0,1,3.12c1.29.92,2.93.67,4.68-.58a10.13,10.13,0,0,0,1.77.67c.11,0,.52-.67.51-1-.07-1.65-.29-3.29-.36-4.93,0-1.41-.28-2.72-1.74-3.29a5.7,5.7,0,0,0-5,.4c-.28.15-.28.8-.44,1.34C567.56,33.09,568.13,33.33,568.09,36.26Zm23-2.52c-.23-.5-.33-1.08-.67-1.34-1-.72-3.59-.56-4.6.17a2.51,2.51,0,0,0,.28,4.46c.67.36,1.5.43,2.15.82a9.06,9.06,0,0,1,1.49,1.48c-.65.4-1.28,1.07-2,1.12a17.3,17.3,0,0,1-3.57-.5c.42.7.58,1.34.94,1.5,1.69.73,3.51,1,5.06-.16a3.24,3.24,0,0,0,1.21-2.46,3.81,3.81,0,0,0-1.64-2.18,20.32,20.32,0,0,0-2.44-1,1.61,1.61,0,0,1-.8-1.21,1.47,1.47,0,0,1,1.07-1A25.37,25.37,0,0,1,591.14,33.74Zm-4.34,11.5c1.27,0,2.21,0,3.15,0,1.21-.06,1.62.48,1.31,1.61-.27.95-.56,1.9-1,3.26a6.34,6.34,0,0,0,2.58-4.89,1.35,1.35,0,0,0-.7-1.09A6,6,0,0,0,586.8,45.24Z"/><path class="cls-1" d="M513,126.87H493.12c-2.58,0-3.16-.57-3.16-3.08V84c0-2.52.58-3.08,3.16-3.08h39.65c2.58,0,3.16.57,3.16,3.08v39.78c0,2.52-.58,3.08-3.16,3.08Zm-9.35-26.61c-4.12,3.74-4.27,8.4-.38,11.47a15.62,15.62,0,0,0,3.73,1.42,46.59,46.59,0,0,0,5.91,0c1.88,0,3.75.1,5.63,0,4.93-.14,8.33-5.22,6.16-9.64-1.34-2.76-3.47-5.14-5.25-7.68a.48.48,0,0,0-.14-.09C514,91,505.28,93.44,503.6,100.26Z"/><path class="cls-5" d="M285.15,134.68V130.6a28,28,0,0,1,3.84,1c.25.1.34,1.63.13,1.73A32.78,32.78,0,0,1,285.15,134.68Z"/><path class="cls-5" d="M300.33,136.15c.19,1.81-.45,2.43-1.63,2.37-.38,0-.73-.58-1.09-.88Z"/><path class="cls-5" d="M376.88,135.66c.48-1.34.89-2.51,1.47-4.15l1.51,4.15Z"/><path class="cls-5" d="M386.28,136c.05-1.28.61-2.11,2-2.17a2.1,2.1,0,0,1,2.05,2.47,2,2,0,0,1-2,2.21C387.09,138.55,386.26,137.46,386.28,136Z"/><path class="cls-5" d="M399.29,136.11a2.26,2.26,0,0,1-2.05,2.37,2.18,2.18,0,0,1-2-2.4c0-1.45.73-2.31,2-2.31A2.16,2.16,0,0,1,399.29,136.11Z"/><path class="cls-15" d="M729.78,221.26V214.5h-6.22c-2.51,0-3.41-.89-3.42-3.36,0-1.11,0-2.22,0-3.33a2.58,2.58,0,0,1,2.71-2.73c5.33,0,10.66,0,16,0a2.56,2.56,0,0,1,2.71,2.72c.05,1.27,0,2.55,0,3.83a2.66,2.66,0,0,1-2.92,2.86c-2.38,0-4.75,0-7.21,0v6.76h7.49a4.43,4.43,0,0,1,1.32.08.92.92,0,0,1,.53.7,1,1,0,0,1-.59.65,2.64,2.64,0,0,1-1,.06H722.56a1.81,1.81,0,0,1-.66,0,8.19,8.19,0,0,1-1-.64c.33-.28.66-.79,1-.8,2.16-.08,4.33,0,6.49-.05Zm1.07-14.76h-5c-4.73,0-4.25-.38-4.31,4.45,0,1.58.6,2.15,2.16,2.13,4-.07,8,0,12,0,5,0,4.42.48,4.46-4.78,0-1.26-.58-1.8-1.82-1.79C735.83,206.52,733.34,206.5,730.85,206.5Z"/><path class="cls-15" d="M730.76,139.58c-2.5,0-5,0-7.49,0-2.17,0-3.11-1-3.13-3.15,0-1.22,0-2.44,0-3.66a2.55,2.55,0,0,1,2.64-2.61c5.38,0,10.76,0,16.13,0a2.54,2.54,0,0,1,2.63,2.63q.08,2,0,4a2.61,2.61,0,0,1-2.82,2.78C736.08,139.61,733.42,139.58,730.76,139.58Zm0-1.44h5c4.75,0,4.36.42,4.35-4.38,0-1.87-.32-2.17-2.24-2.17H726.1c-5.06,0-4.49-.5-4.53,4.71,0,1.35.61,1.88,1.92,1.85C725.93,138.12,728.36,138.14,730.8,138.14Z"/><path class="cls-15" d="M730.69,118.16c2.6,0,5.21,0,7.81,0,2.07,0,3,1,3.07,3,0,1.22,0,2.44,0,3.66a2.58,2.58,0,0,1-2.72,2.71q-8,.06-16,0a2.57,2.57,0,0,1-2.73-2.7c0-1.28,0-2.55,0-3.83a2.65,2.65,0,0,1,2.9-2.88C725.59,118.14,728.14,118.16,730.69,118.16Zm.2,8h4.82c4.87,0,4.38.44,4.44-4.48,0-1.61-.66-2.13-2.19-2.1-3.93.06-7.86,0-11.79,0-5.16,0-4.56-.54-4.6,4.81,0,1.27.62,1.77,1.85,1.76C725.91,126.14,728.4,126.16,730.89,126.16Z"/><path class="cls-15" d="M731.47,48.69c-.05.52-.11.9-.11,1.28,0,1.76,0,3.52,0,5.48h7.57a4.45,4.45,0,0,1,1.32.09.89.89,0,0,1,.53.69,1,1,0,0,1-.58.65,2.7,2.7,0,0,1-1,.06c-5.61,0-11.21,0-16.82,0-.5,0-1-.51-1.51-.78a4.41,4.41,0,0,1,1.51-.65c2.43-.07,4.87,0,7.39,0V48.69h-6.21c-2.53,0-3.42-.9-3.43-3.37,0-1.11,0-2.22,0-3.33a2.57,2.57,0,0,1,2.71-2.72q8-.06,16,0A2.56,2.56,0,0,1,741.56,42c.05,1.27,0,2.55,0,3.83a2.65,2.65,0,0,1-2.92,2.86C736.27,48.71,733.9,48.69,731.47,48.69Zm-.59-1.44h4.81c4.88,0,4.4.45,4.46-4.46,0-1.6-.63-2.14-2.18-2.12-4,.06-8,0-12,0-4.95,0-4.4-.45-4.46,4.63,0,1.43.61,2,2,1.94C726,47.21,728.44,47.25,730.88,47.25Z"/><path class="cls-9" d="M33.26,135.14c1.27,0,2.55,0,3.83,0A5.18,5.18,0,0,1,41.82,142a.92.92,0,0,1-.69.53.88.88,0,0,1-.66-.55,15.91,15.91,0,0,1-.06-1.83,3.33,3.33,0,0,0-3.55-3.53q-3.66-.06-7.32,0c-2.38,0-3.57,1.34-3.7,3.76,0,.74.65,1.92-.75,2.09a4.93,4.93,0,0,1-.64-2.19c0-3.27,1.83-5.09,5.15-5.12Z"/><path class="cls-8" d="M33.09,132.6a4.73,4.73,0,1,1,4.79-4.68A4.68,4.68,0,0,1,33.09,132.6Zm3.32-4.8a3.27,3.27,0,1,0-3.24,3.34A3.39,3.39,0,0,0,36.41,127.8Z"/><path class="cls-8" d="M43.88,127.82a4.64,4.64,0,0,1-3.21,4.53c-.34.09-.76-.15-1.14-.24.18-.39.26-1,.57-1.14,3.11-1.86,3.1-4.21-.05-6.19-.3-.19-.4-.69-.59-1,.42-.12.89-.42,1.25-.32A4.62,4.62,0,0,1,43.88,127.82Z"/><path class="cls-8" d="M47.88,140.52a2.23,2.23,0,0,1,0,.82,8.5,8.5,0,0,1-.75,1.22c-.23-.42-.68-.85-.67-1.26.07-2.1-.3-3.86-2.58-4.66-.21-.08-.26-.63-.38-.95.43-.1.91-.37,1.28-.26C46.78,136,47.86,137.86,47.88,140.52Z"/><path class="cls-16" d="M512.78,52.88a6.73,6.73,0,0,0-1.49,0c-3.54.84-5.52-1.25-7.31-3.78-1-1.43-2.23-2.71-3.16-4.18a4.29,4.29,0,0,1-.72-2.69c.5-3,1.17-5.94,1.93-8.86a3.24,3.24,0,0,1,1.5-1.8c2.78-1.49,5.63-2.86,8.49-4.19a2.25,2.25,0,0,1,1.69,0c3,1.38,6,2.83,8.94,4.32a2.16,2.16,0,0,1,1,1.24c.79,3.14,1.54,6.3,2.2,9.47a2.8,2.8,0,0,1-.41,2c-1.91,2.55-3.88,5.07-6,7.5a3.51,3.51,0,0,1-2.16.93C515.79,53,514.28,52.88,512.78,52.88Zm9.61-10.3,0-.59c-2.06.29-2.54-.74-2.47-2.42a4,4,0,0,0-.6-2c-.56-1-.24-1.6.56-2.23.32-.24.44-.73.65-1.11-.46.13-1,.11-1.35.4-.78.77-1.32.91-2.17,0a4.46,4.46,0,0,0-2.31-1.16c-1.31-.23-1.68-.8-1.39-2,.07-.28-.24-.64-.37-1-.23.31-.71.69-.65.92.46,1.75-.65,2-1.92,2.32a2.91,2.91,0,0,0-1.31.66c-1,.92-2,1.47-3,0-.12-.17-.61-.05-.93-.07.08.32.07.85.25.92,1.61.66,1.3,1.73.78,3a4.43,4.43,0,0,0-.4,1.75c0,1.7-.83,2.3-2.55,2.36.34.44.88.87,1.12.74,1.2-.63,1.81-.23,2.26.93a2.87,2.87,0,0,0,1,1.46c1.72,1,1.59,2.14.66,3.54,0,0,.08.18.14.31a1.68,1.68,0,0,0,.45,0c.16,0,.41-.11.43-.2.38-2.23,2-1.4,3.34-1.4a5.69,5.69,0,0,0,1.81-.15c.94-.35,1.28-.05,1.52.84.11.4.6.69.92,1l.45-.34a5.94,5.94,0,0,1-.52-1.48,2.29,2.29,0,0,1,.26-1.45c.58-.81,1.44-1.43,1.95-2.27s.91-1.45,2-.94C521.42,43.05,522,42.7,522.39,42.58Z"/><path class="cls-17" d="M566.5,93.45h9.85v9.88H566.5Z"/><path class="cls-18" d="M577.45,103.31V93.5h9.88v9.81Z"/><path class="cls-19" d="M576.37,104.5v9.78h-9.84V104.5Z"/><path class="cls-20" d="M577.48,104.44h9.88v9.89h-9.88Z"/><path class="cls-21" d="M510.05,228.78c-.26.44-.55.88-.77,1.34-.9,1.9-1.67,3.87-2.72,5.69a3.33,3.33,0,0,1-2.16,1.65c-.66,0-1.68-.82-2.06-1.53-1.29-2.45-2.37-5-3.53-7.52-.42-.93-.38-1.8.61-2.27s1.8-.08,2.26,1c.86,2,1.75,4,2.77,6.4l1.88-4.41c1.49-3.49,3.66-4.11,6.88-1.87,2.17-1.47,4.41-2,6.26-.35a22.83,22.83,0,0,1,4.76-.77,3.3,3.3,0,0,1,3.07,3.52c0,2,0,4,0,6,0,1.11-.43,1.89-1.57,1.95s-1.67-.79-1.7-1.84c-.06-1.66,0-3.33,0-5,0-1.19-.43-2-1.7-2s-1.7.86-1.69,2c0,1.5,0,3,0,4.49,0,1.17-.23,2.23-1.6,2.26s-1.72-1.1-1.71-2.32c0-1.5,0-3,0-4.49,0-1.21-.45-2-1.7-2s-1.7.84-1.68,2c0,1.55,0,3.11,0,4.66,0,1.13-.35,2.06-1.61,2.09s-1.72-1-1.72-2.16c0-1.66,0-3.32,0-5,0-.51-.09-1-.13-1.53Z"/><path class="cls-9" d="M579.41,232.19a2.5,2.5,0,1,1-5,0,2.56,2.56,0,0,1,2.4-2.48A2.53,2.53,0,0,1,579.41,232.19Z"/><path class="cls-9" d="M587.92,232.21a2.5,2.5,0,1,1-2.59-2.45A2.54,2.54,0,0,1,587.92,232.21Z"/><path class="cls-9" d="M570.92,232.28a2.5,2.5,0,1,1-2.51-2.53A2.52,2.52,0,0,1,570.92,232.28Z"/><path class="cls-22" d="M502,168c0-3.1,0-6.2,0-9.31,0-2.08.74-2.85,2.76-2.86h16.46c2,0,2.76.77,2.77,2.85q0,9.39,0,18.78c0,2-.76,2.77-2.84,2.77H504.8c-2.15,0-2.84-.73-2.85-2.92C501.94,174.21,502,171.11,502,168Zm16.32,8.51c.08-.19.17-.28.17-.38,0-2,0-4.1,0-6.14,0-3.13-1.72-4.67-4.87-4.36-1.19.12-2.37.37-3.73.6v-6.68h-2.35v10.17c2.2-.56,4.31-1.17,6.45-1.61,1.36-.28,2.06.36,2,1.85-.08,2.15,0,4.3,0,6.55Zm-3.84-13.14c2.57.24,3.64-.81,3.87-3.81h-2.2Zm-7,8.43v4.79l2.74-2.45c-.75-.69-1.35-1.25-2-1.8A9.3,9.3,0,0,0,507.47,171.81Z"/><path class="cls-23" d="M574.81,39c.46-1.94.87-3.89,1.43-5.79a1.6,1.6,0,0,1,1.2-.9c.34,0,.95.5,1.06.89.55,2,1,4.07,1.72,6.12.49-1.91,1-3.81,1.46-5.74.26-1.16.8-1.63,2.18-1.13-.89,2.91-1.76,5.84-2.72,8.74-.1.29-.81.55-1.2.51a1.39,1.39,0,0,1-1-.77C578.4,39,578,37,577.22,35c-.42,1.7-.84,3.4-1.28,5.09-.18.69-.06,1.57-1.23,1.61s-1.27-.77-1.5-1.57c-.76-2.58-1.56-5.16-2.35-7.76,1.3-.44,2-.18,2.23,1.15.38,1.84.93,3.66,1.4,5.48Z"/><path class="cls-24" d="M561,44.77a33,33,0,0,0,29,1.41c-.54,1.93-4.34,3.85-9,4.64A22.29,22.29,0,0,1,561,44.77Z"/><path class="cls-23" d="M568.09,36.26c0-2.93-.53-3.17-5.31-2.23.16-.54.16-1.19.44-1.34a5.7,5.7,0,0,1,5-.4c1.46.57,1.69,1.88,1.74,3.29.07,1.64.29,3.28.36,4.93,0,.34-.4,1-.51,1a10.13,10.13,0,0,1-1.77-.67c-1.75,1.25-3.39,1.5-4.68.58a2.6,2.6,0,0,1-1-3.12C563.36,35.42,565.87,36.09,568.09,36.26Zm-1.55.77c-1.36.33-2.38.55-2.43,1.95a1.41,1.41,0,0,0,1.5,1.59c1.35,0,2.78-1.08,2.51-2.22C568,37.81,567.09,37.46,566.54,37Z"/><path class="cls-23" d="M591.14,33.74a25.37,25.37,0,0,0-3.48-.25,1.47,1.47,0,0,0-1.07,1,1.61,1.61,0,0,0,.8,1.21,20.32,20.32,0,0,1,2.44,1,3.81,3.81,0,0,1,1.64,2.18,3.24,3.24,0,0,1-1.21,2.46c-1.55,1.12-3.37.89-5.06.16-.36-.16-.52-.8-.94-1.5a17.3,17.3,0,0,0,3.57.5c.68-.05,1.31-.72,2-1.12a9.06,9.06,0,0,0-1.49-1.48c-.65-.39-1.48-.46-2.15-.82a2.51,2.51,0,0,1-.28-4.46c1-.73,3.64-.89,4.6-.17C590.81,32.66,590.91,33.24,591.14,33.74Z"/><path class="cls-24" d="M586.8,45.24a6,6,0,0,1,5.38-1.12,1.35,1.35,0,0,1,.7,1.09,6.34,6.34,0,0,1-2.58,4.89c.4-1.36.69-2.31,1-3.26.31-1.13-.1-1.67-1.31-1.61C589,45.27,588.07,45.24,586.8,45.24Z"/><path class="cls-25" d="M519.26,95.82a.48.48,0,0,1,.14.09c1.78,2.54,3.91,4.92,5.25,7.68,2.17,4.42-1.23,9.5-6.16,9.64-1.88,0-3.75,0-5.63,0,0-1.41,0-2.81,0-4.21,1.61,0,3.22-.09,4.82,0s2.75-.57,3.12-2.14-.5-2.49-1.83-3.16a2.28,2.28,0,0,1-.76-1c-.67-1.29-1.31-2.61-2-3.92Z"/><path class="cls-20" d="M503.22,111.73c-3.89-3.07-3.74-7.73.38-11.47l5.5-1,4.06,2.47L510,104.87c-2-1.64-3.57-1.73-4.7-.26-1,1.3-.63,2.79,1,4.1Z"/><path class="cls-17" d="M509.1,99.24l-5.5,1c1.68-6.82,10.42-9.29,15.66-4.44l-3,2.88C513.05,97.08,511.17,97.22,509.1,99.24Z"/><path class="cls-26" d="M503.22,111.73l3.1-3,6.56.26c0,1.4,0,2.8,0,4.21a46.59,46.59,0,0,1-5.91,0A15.62,15.62,0,0,1,503.22,111.73Z"/><path class="cls-14" d="M730.85,206.5c2.49,0,5,0,7.47,0,1.24,0,1.83.53,1.82,1.79,0,5.26.54,4.78-4.46,4.78-4,0-8-.05-12,0-1.56,0-2.19-.55-2.16-2.13.06-4.83-.42-4.46,4.31-4.45Zm-5.94,4.67c.44-.64,1-1.07.88-1.35s-.64-.69-1-1c-.31.32-.88.65-.87,1S724.44,210.53,724.91,211.17Z"/><path class="cls-14" d="M730.8,138.14c-2.44,0-4.87,0-7.31,0-1.31,0-1.94-.5-1.92-1.85,0-5.21-.53-4.71,4.53-4.71h11.79c1.92,0,2.24.3,2.24,2.17,0,4.8.4,4.39-4.35,4.38Zm-5.95-1.89c.47-.61,1-1,.94-1.31a1.6,1.6,0,0,0-1-1c-.21-.07-.9.56-.89.86S724.41,135.6,724.85,136.25Z"/><path class="cls-14" d="M730.89,126.16c-2.49,0-5,0-7.47,0-1.23,0-1.86-.49-1.85-1.76,0-5.35-.56-4.81,4.6-4.81,3.93,0,7.86,0,11.79,0,1.53,0,2.22.49,2.19,2.1-.06,4.92.43,4.48-4.44,4.48Zm-6.15-1.94c.5-.53,1.07-.89,1-1.18s-.54-.77-.85-1.15c-.35.33-.89.61-1,1S724.35,123.62,724.74,124.22Z"/><path class="cls-14" d="M730.88,47.25c-2.44,0-4.88,0-7.31,0-1.4,0-2-.51-2-1.94.06-5.08-.49-4.63,4.46-4.63,4,0,8,0,12,0,1.55,0,2.2.52,2.18,2.12-.06,4.91.42,4.46-4.46,4.46Zm-6.1-4.66c-.41.67-.86,1.09-.85,1.49s.73.89.94.81a1.59,1.59,0,0,0,.91-1C725.83,43.56,725.27,43.18,724.78,42.59Z"/><path class="cls-14" d="M36.41,127.8A3.27,3.27,0,1,1,33,124.61,3.39,3.39,0,0,1,36.41,127.8Z"/><path class="cls-13" d="M522.39,42.58c-.44.12-1,.47-1.29.33-1.13-.51-1.52.08-2,.94s-1.37,1.46-1.95,2.27a2.29,2.29,0,0,0-.26,1.45,5.94,5.94,0,0,0,.52,1.48l-.45.34c-.32-.34-.81-.63-.92-1-.24-.89-.58-1.19-1.52-.84a5.69,5.69,0,0,1-1.81.15c-1.31,0-3-.83-3.34,1.4,0,.09-.27.17-.43.2a1.68,1.68,0,0,1-.45,0c-.06-.13-.17-.26-.14-.31.93-1.4,1.06-2.58-.66-3.54a2.87,2.87,0,0,1-1-1.46c-.45-1.16-1.06-1.56-2.26-.93-.24.13-.78-.3-1.12-.74,1.72-.06,2.59-.66,2.55-2.36a4.43,4.43,0,0,1,.4-1.75c.52-1.22.83-2.29-.78-3-.18-.07-.17-.6-.25-.92.32,0,.81-.1.93.07,1,1.45,2,.9,3,0a2.91,2.91,0,0,1,1.31-.66c1.27-.28,2.38-.57,1.92-2.32-.06-.23.42-.61.65-.92.13.33.44.69.37,1-.29,1.24.08,1.81,1.39,2A4.46,4.46,0,0,1,517,34.59c.85.92,1.39.78,2.17,0,.3-.29.89-.27,1.35-.4-.21.38-.33.87-.65,1.11-.8.63-1.12,1.24-.56,2.23a4,4,0,0,1,.6,2c-.07,1.68.41,2.71,2.47,2.42Zm-4.57-5.11-2.77,2.43,3.63,1C518.36,39.64,518.13,38.72,517.82,37.47Zm-10.26,5,2.25,2.79L511.13,42ZM509,36.22l2.94,2c.09-1.25.15-2.19.24-3.5Zm7.95,0-3.23-1.49c.11,1.35.19,2.25.29,3.47Zm1.34,6.23-3.49-.52c.5,1.22.88,2.12,1.37,3.33Zm-11-1.58,3.38-1-2.58-2.44C507.78,38.69,507.57,39.6,507.27,40.88Zm4,5h3.34l-1.72-3Z"/><path class="cls-2" d="M518.27,176.52H516c0-2.25-.06-4.4,0-6.55,0-1.49-.65-2.13-2-1.85-2.14.44-4.25,1-6.45,1.61V159.56h2.35v6.68c1.36-.23,2.54-.48,3.73-.6,3.15-.31,4.85,1.23,4.87,4.36,0,2,0,4.09,0,6.14C518.44,176.24,518.35,176.33,518.27,176.52Z"/><path class="cls-2" d="M514.43,163.38l1.67-3.81h2.2C518.07,162.57,517,163.62,514.43,163.38Z"/><path class="cls-6" d="M507.47,171.81a9.3,9.3,0,0,1,.78.54c.61.55,1.21,1.11,2,1.8l-2.74,2.45Z"/><path class="cls-2" d="M566.54,37c.55.43,1.46.78,1.58,1.32.27,1.14-1.16,2.27-2.51,2.22a1.41,1.41,0,0,1-1.5-1.59C564.16,37.58,565.18,37.36,566.54,37Z"/><path class="cls-13" d="M512.88,109l-6.56-.26c-1.64-1.31-2-2.8-1-4.1,1.13-1.47,2.66-1.38,4.7.26l3.15-3.16-4.06-2.47c2.07-2,3.95-2.16,7.17-.54.65,1.31,1.29,2.63,2,3.92a2.28,2.28,0,0,0,.76,1c1.33.67,2.19,1.64,1.83,3.16s-1.51,2.19-3.12,2.14S514.49,109,512.88,109Z"/><path class="cls-10" d="M724.91,211.17c-.47-.64-1-1-1-1.42s.56-.64.87-1c.35.34.88.63,1,1S725.35,210.53,724.91,211.17Z"/><path class="cls-10" d="M724.85,136.25c-.44-.65-.92-1.05-.92-1.45s.68-.93.89-.86a1.6,1.6,0,0,1,1,1C725.85,135.22,725.32,135.64,724.85,136.25Z"/><path class="cls-10" d="M724.74,124.22c-.39-.6-.89-1-.81-1.32s.65-.68,1-1c.31.38.8.74.85,1.15S725.24,123.69,724.74,124.22Z"/><path class="cls-10" d="M724.78,42.59c.49.59,1.05,1,1,1.25a1.59,1.59,0,0,1-.91,1c-.21.08-.93-.51-.94-.81S724.37,43.26,724.78,42.59Z"/><path class="cls-25" d="M517.82,37.47c.31,1.25.54,2.17.86,3.44l-3.63-1Z"/><path class="cls-16" d="M507.56,42.47l3.57-.5-1.32,3.29Z"/><path class="cls-16" d="M509,36.22l3.18-1.53c-.09,1.31-.15,2.25-.24,3.5Z"/><path class="cls-16" d="M516.92,36.23l-2.94,2c-.1-1.22-.18-2.12-.29-3.47Z"/><path class="cls-16" d="M518.26,42.46l-2.12,2.81c-.49-1.21-.87-2.11-1.37-3.33Z"/><path class="cls-16" d="M507.27,40.88c.3-1.28.51-2.19.8-3.41l2.58,2.44Z"/><path class="cls-16" d="M511.3,45.86l1.62-3,1.72,3Z"/><path class="cls-27" d="M556,168.23a2.61,2.61,0,0,1,.37-.62.79.79,0,0,1,.92-.11.81.81,0,0,1,.51.78v1.91a.87.87,0,0,1-.73.86.88.88,0,0,1-1-.61,1,1,0,0,1-.05-.2Z"/><path class="cls-27" d="M567.66,167.24V172a.9.9,0,0,1-.88.9.88.88,0,0,1-.83-.56,1.11,1.11,0,0,1-.08-.44V162.6a.89.89,0,0,1,1.55-.69,1,1,0,0,1,.24.66C567.64,164.13,567.66,165.68,567.66,167.24Z"/><path class="cls-27" d="M587.24,167.24v4.69a.86.86,0,0,1-.55.85.88.88,0,0,1-1-.2,1,1,0,0,1-.26-.7v-9.34a.89.89,0,0,1,1.78,0v4.74Z"/><path class="cls-27" d="M592.14,168v2.11a.86.86,0,0,1-.79.93h-.1a.89.89,0,0,1-.91-.86v-4.32a.91.91,0,0,1,.87-.93h0a.89.89,0,0,1,.88.89V168Z"/><path class="cls-27" d="M562.74,168v2.08a.87.87,0,0,1-.8.94h-.06a.9.9,0,0,1-.94-.84v-4.34a.91.91,0,0,1,.89-.93h0a.89.89,0,0,1,.88.9V168Z"/><path class="cls-27" d="M572.54,168v2.08a.9.9,0,0,1-1.8,0h0v-4.24a.91.91,0,0,1,.88-.93h0a.88.88,0,0,1,.88.89V168Z"/><path class="cls-27" d="M582.34,168v2.19a.89.89,0,0,1-1.68.37,1.18,1.18,0,0,1-.11-.5v-4.14a.92.92,0,0,1,.83-1,1,1,0,0,1,.53.12.91.91,0,0,1,.45.81V168Z"/><path class="cls-27" d="M597,169.24v.92a.89.89,0,1,1-1.78.05v-1.93a.89.89,0,0,1,1.78.06h0Z"/><path class="cls-27" d="M577.44,169.26v.92a.9.9,0,1,1-1.79,0h0c0-.64,0-1.28,0-1.91a.9.9,0,0,1,1.79,0C577.45,168.63,577.44,169,577.44,169.26Z"/></g></g></svg>