<svg xmlns="http://www.w3.org/2000/svg" viewBox="0 0 94.68 106.12"><defs><style>.cls-1{fill:#6044e8;}.cls-2{fill:#4141b2;}.cls-3{fill:#5f43e8;}</style></defs><g id="Layer_2" data-name="Layer 2"><g id="Layer_1-2" data-name="Layer 1"><path class="cls-1" d="M32.63,18.7,51.24,29.31c3.1,1.78,6.25,3.49,9.29,5.38A3.29,3.29,0,0,1,62,36.91c.09,10.57.06,21.14.06,32-.84-.4-1.51-.67-2.12-1-8.53-4.85-17.08-9.69-25.56-14.63A3.5,3.5,0,0,1,32.7,51C32.59,40.37,32.63,29.79,32.63,18.7Z"/><path class="cls-1" d="M33,56.21c7.39,4.21,14.61,8.31,21.82,12.44C57.18,70,60.46,70.91,61.62,73s.43,5.5.44,8.32c0,8.16,0,16.32,0,24.82a17.73,17.73,0,0,1-1.92-.79c-8.68-4.94-17.36-9.87-26-14.9a3.16,3.16,0,0,1-1.48-2.2c-.08-10.41,0-20.82,0-31.23A3.87,3.87,0,0,1,33,56.21Z"/><path class="cls-2" d="M65.21,68.93V49c0-3.91-.07-7.82.05-11.73a3.3,3.3,0,0,1,1.14-2.4c9.11-5.31,18.29-10.52,27.46-15.74a2.43,2.43,0,0,1,.71-.07c0,.45.1.9.1,1.35,0,10,0,20,0,30A3.44,3.44,0,0,1,93.36,53c-9,5.24-18,10.36-27,15.5A10,10,0,0,1,65.21,68.93Z"/><path class="cls-3" d="M0,0C3.67,2.08,6.83,3.85,10,5.65,15.9,9,21.84,12.37,27.7,15.84a3.47,3.47,0,0,1,1.54,2.42c.1,10.14.07,20.29.06,30.44a12.65,12.65,0,0,1-.2,1.46L14.64,41.94C10.31,39.47,6,37,1.68,34.46a3.26,3.26,0,0,1-1.6-2.13C0,21.77,0,11.22,0,0Z"/></g></g></svg>